<svg xmlns="http://www.w3.org/2000/svg" xmlns:xlink="http://www.w3.org/1999/xlink" class="h-8 w-8 md:h-10 md:w-10" width="512" height="512" x="0" y="0" viewBox="0 0 512 512" style="enable-background:new 0 0 512 512" xml:space="preserve">
<g>
<path d="M461.879 11.647a6 6 0 0 0-5.031-5.031c-53.512-8.132-100.713 15.681-130.887 37.086-10.116 7.176-19.891 15.23-29.177 23.961l-52.242 1.899a5.998 5.998 0 0 0-4.784 2.683l-26.227 39.593c-58.069-.773-110.794 19.687-137.881 53.583-.104.13-.203.265-.296.404-8.344 12.444-4.336 19.833-1.116 25.771 1.508 2.781 2.811 5.182 3.163 8.379.49 4.458-3.898 20.182-7.102 31.664-2.625 9.405-5.103 18.288-6.18 24.494-2.374 13.728 2.783 20.438 6.548 25.338 2.552 3.321 4.238 5.516 4.13 9.752-.176 6.949-6.442 19.928-18.644 38.604-.479.741-.946 1.448-1.396 2.13-3.676 5.563-7.147 10.818-6.066 19.074 1.319 10.075 9.956 12.507 15.671 14.116 4.954 1.396 8.064 2.402 9.531 5.395.267.545.706 1.441-.167 5.769-3.015 7.025-3.276 12.254-.859 16.887 1 1.917 2.333 3.409 3.841 4.624a23.971 23.971 0 0 0-3.2 4.978 6.11 6.11 0 0 0-.268.662c-1.029 3.054-1.342 9.636 1.879 15.552.13.597.216 2.229-.346 6.688-.926 7.36-2.476 19.679 6.76 27.259 4.974 4.082 11.728 5.229 19.253 5.229 3.672 0 7.529-.273 11.451-.612.091-.008.181-.018.271-.029 13.68-1.813 26.64-4.13 38.87-6.93 3.528 2.034 5.64 7.024 6.276 14.883.101 2.412-.018 30.757-.261 35.188a6 6 0 0 0 5.991 6.328h145.258a5.998 5.998 0 0 0 5.997-6.186c-1.606-51.553 1.495-91.96 8.51-110.93 4.975-11.243 11.032-22.32 17.443-34.043 18.49-33.811 37.584-68.743 33.321-112.323l22.336-14.796a6.004 6.004 0 0 0 2.683-4.784l1.9-52.243c8.73-9.286 16.784-19.062 23.96-29.177 21.405-30.173 45.215-77.374 37.086-130.887zm-11.267 6.237c2.598 22.178-.692 43.206-6.911 62.128-3.511-14.558-10.747-27.464-21.336-37.59-9.159-8.759-20.332-14.907-32.389-18.106 18.534-5.905 39.038-8.964 60.636-6.432zM248.059 81.442l36.239-1.317c-19.691 20.856-36.539 44.696-48.768 69.422l-37.781 7.844zm15.498 123.497c3.904 3.904 5.566 8.464 5.082 13.94-1.173 13.265-14.769 29.461-26.964 37.966-13.407 9.348-29.794 15.177-46.732 16.707 1.531-16.938 7.359-33.325 16.708-46.731 8.506-12.196 24.702-25.792 37.964-26.966 5.48-.486 10.038 1.178 13.943 5.083zm66.508 145.16c-6.279 11.481-12.771 23.354-17.965 35.118a6.101 6.101 0 0 0-.132.324c-7.397 19.812-10.742 58.546-9.495 109.475H169.531c.155-10.295.217-28.562.092-30.392-.57-7.169-2.23-12.947-4.945-17.317 20.271-5.487 38.274-12.433 53.827-20.794a6 6 0 0 0-5.681-10.57c-26.52 14.257-60.755 24.246-101.756 29.69-8.584.74-18.032 1.243-21.921-1.949-3.801-3.12-3.336-9.578-2.467-16.484.727-5.771.867-10.007-.68-13.288a6.28 6.28 0 0 0-.237-.453c-1.304-2.248-1.323-5-1.189-5.958 1.613-2.998 4.535-4.984 5.526-5.658.237-.161.416-.285.529-.369a6 6 0 0 0-1.203-10.334c-2.717-1.168-5.283-2.271-5.919-3.49-.797-1.528.565-5.084 1.448-7.068.17-.381.299-.778.386-1.187 1.171-5.485 1.468-9.762-.672-14.133-3.903-7.962-11.504-10.102-17.054-11.665-6.072-1.71-6.793-2.347-7.025-4.123-.476-3.633.703-5.639 4.18-10.902.473-.715.963-1.458 1.448-2.208 13.987-21.409 20.333-35.237 20.576-44.835.217-8.482-3.569-13.409-6.611-17.368-3.318-4.318-5.716-7.438-4.239-15.979.973-5.609 3.373-14.21 5.914-23.316 5.111-18.316 8.165-29.894 7.471-36.201-.609-5.538-2.79-9.558-4.542-12.789-2.713-5.002-3.747-6.907.397-13.161 23.678-29.455 69.196-47.746 120.38-48.847l-25.866 39.049a6 6 0 0 0 6.222 9.189l48.498-10.07 3.281 28.447c-16.145 6.097-30 21.033-35.889 29.478-11.875 17.03-18.707 38.274-19.235 59.82a5.996 5.996 0 0 0 5.998 6.148c.049 0 .098 0 .147-.002 21.545-.528 42.79-7.36 59.821-19.235 8.444-5.888 23.379-19.744 29.476-35.889l28.448 3.28-10.07 48.498a6 6 0 0 0 9.187 6.222l56.821-37.639c1.458 37.108-15.692 68.503-32.337 98.939zm-18.96-79.353 7.844-37.781c24.726-12.229 48.566-29.077 69.422-48.768l-1.318 36.239-75.949 50.31zm1.521-48.035-31.977-3.687c.52-8.612-2.438-16.401-8.607-22.57-6.17-6.17-13.963-9.129-22.57-8.608l-3.688-31.976c19.304-39.5 50.976-76.738 87.12-102.38 9.368-6.646 20.467-13.539 32.912-19.523 17.885-1.338 35.428 4.863 48.255 17.129 13.605 13.009 20.679 31.615 20.018 52.48-5.882 12.08-12.599 22.875-19.084 32.016-25.642 36.145-62.88 67.816-102.38 87.12zM164.42 203.418a6 6 0 0 1-4.243-10.242l12.19-12.189a6 6 0 0 1 8.485 8.485l-12.19 12.189a5.984 5.984 0 0 1-4.243 1.757zm24.796-4.268a6 6 0 0 1 0-8.485l12.19-12.19a6 6 0 0 1 8.485 8.485l-12.19 12.19c-1.172 1.171-2.707 1.757-4.243 1.757s-3.071-.586-4.243-1.757zm-32.922 6.394a6 6 0 0 1 0 8.485l-12.189 12.189c-1.172 1.171-2.707 1.757-4.243 1.757s-3.071-.586-4.243-1.757a6 6 0 0 1 0-8.485l12.189-12.189a6 6 0 0 1 8.485 0zm28.681 6.333-12.19 12.189c-1.171 1.171-2.708 1.757-4.243 1.757s-3.071-.586-4.243-1.757a6 6 0 0 1 0-8.485l12.19-12.189a6 6 0 0 1 8.485 8.485zm102.536 75.767a5.999 5.999 0 0 1 0 8.484l-12.189 12.189c-1.172 1.172-2.707 1.758-4.243 1.758s-3.071-.586-4.243-1.758a5.999 5.999 0 0 1 0-8.484l12.189-12.189a5.998 5.998 0 0 1 8.485 0zm2.511-29.04a6.001 6.001 0 0 1 0 8.486l-12.19 12.189c-1.171 1.171-2.708 1.757-4.243 1.757s-3.071-.586-4.243-1.758a6 6 0 0 1 0-8.485l12.19-12.189a6 6 0 0 1 8.485 0zm-45.592 45.591a5.999 5.999 0 0 1 0-8.484l12.189-12.189a5.998 5.998 0 0 1 8.485 0 5.999 5.999 0 0 1 0 8.484l-12.189 12.189c-1.171 1.172-2.707 1.758-4.243 1.758s-3.071-.586-4.243-1.758zm18.523 8.007a5.999 5.999 0 0 1 0 8.484l-12.189 12.189c-1.172 1.172-2.707 1.758-4.243 1.758s-3.071-.586-4.243-1.758a5.999 5.999 0 0 1 0-8.484l12.189-12.189a5.998 5.998 0 0 1 8.485 0zm63.443-224.539c-7.271 7.271-11.275 16.937-11.275 27.219s4.004 19.949 11.275 27.219c7.504 7.504 17.362 11.256 27.219 11.256s19.715-3.752 27.219-11.256c15.008-15.009 15.008-39.43 0-54.438s-39.429-15.009-54.438 0zm45.953 45.953c-10.33 10.33-27.137 10.331-37.467 0-5.004-5.004-7.76-11.657-7.76-18.734s2.756-13.73 7.76-18.734c5.165-5.165 11.949-7.748 18.733-7.748s13.569 2.583 18.734 7.748c10.33 10.33 10.33 27.138 0 37.468z" fill="#FF4624" opacity="1" data-original="#000000"></path>
</g>
</svg>