<svg class="h-8 w-8 md:h-10 md:w-10" xmlns="http://www.w3.org/2000/svg" version="1.1" xmlns:xlink="http://www.w3.org/1999/xlink" width="512" height="512" x="0" y="0" viewBox="0 0 64 64" style="enable-background:new 0 0 512 512" xml:space="preserve">
<g>
<path d="M42.5 16.812a1.426 1.426 0 0 1 1.5 1.334h2a3.355 3.355 0 0 0-2.5-3.179v-1.488h-2v1.488a3.355 3.355 0 0 0-2.5 3.179 3.424 3.424 0 0 0 3.5 3.333 1.343 1.343 0 1 1-1.5 1.333h-2a3.355 3.355 0 0 0 2.5 3.178v1.489h2V25.99a3.355 3.355 0 0 0 2.5-3.178 3.424 3.424 0 0 0-3.5-3.333 1.343 1.343 0 1 1 0-2.667z" fill="#FF4624" opacity="1" data-original="#000000"></path>
<path d="M32 6.479v25a1 1 0 0 0 1 1h25a1 1 0 0 0 1-1 26.03 26.03 0 0 0-26-26 1 1 0 0 0-1 1zm2 1.02a24.034 24.034 0 0 1 22.98 22.98H34z" fill="#FF4624" opacity="1" data-original="#000000"></path>
<path d="M4.18 42.005a1.5 1.5 0 0 1 1.412 1.11 23.378 23.378 0 0 0 1.534 3.693 1.521 1.521 0 0 1-.213 1.787l-1.2 1.2a1 1 0 0 0-.123 1.266 26.996 26.996 0 0 0 7.35 7.35.997.997 0 0 0 1.265-.123l1.201-1.201a1.523 1.523 0 0 1 1.785-.214 23.413 23.413 0 0 0 3.694 1.535 1.5 1.5 0 0 1 1.11 1.411v1.689a1 1 0 0 0 .808.981 26.694 26.694 0 0 0 10.394 0 1 1 0 0 0 .808-.981v-1.689a1.5 1.5 0 0 1 1.11-1.41 23.466 23.466 0 0 0 3.693-1.535 1.52 1.52 0 0 1 1.786.213l1.2 1.201a.997.997 0 0 0 1.267.122 26.996 26.996 0 0 0 7.35-7.35 1 1 0 0 0-.123-1.265l-1.2-1.2a1.52 1.52 0 0 1-.214-1.787 23.378 23.378 0 0 0 1.534-3.693 1.5 1.5 0 0 1 1.411-1.11h1.689a1 1 0 0 0 .981-.809A27.223 27.223 0 0 0 55 36a1 1 0 0 0-1-1H29V10a1 1 0 0 0-1-1 27.19 27.19 0 0 0-5.197.51 1 1 0 0 0-.808.982v1.689a1.5 1.5 0 0 1-1.11 1.41 23.592 23.592 0 0 0-3.694 1.534 1.514 1.514 0 0 1-1.785-.212l-1.2-1.201a.997.997 0 0 0-1.267-.122 26.996 26.996 0 0 0-7.35 7.35 1 1 0 0 0 .123 1.265l1.2 1.2a1.52 1.52 0 0 1 .214 1.787 23.378 23.378 0 0 0-1.534 3.693 1.5 1.5 0 0 1-1.411 1.11H2.493a1 1 0 0 0-.982.808 26.681 26.681 0 0 0 0 10.393 1 1 0 0 0 .981.809zM43.847 37A15.898 15.898 0 1 1 27 20.154V36a1 1 0 0 0 1 1zM3.33 31.994h.85a3.508 3.508 0 0 0 3.318-2.504A21.384 21.384 0 0 1 8.9 26.114a3.51 3.51 0 0 0-.573-4.123l-.608-.608a24.964 24.964 0 0 1 5.664-5.665l.608.61a3.51 3.51 0 0 0 4.123.572 21.537 21.537 0 0 1 3.376-1.402 3.51 3.51 0 0 0 2.505-3.317v-.852A25.264 25.264 0 0 1 27 11.021v7.133a17.889 17.889 0 0 0-1.651 35.555 18.345 18.345 0 0 0 2.608.187A17.845 17.845 0 0 0 45.846 37h7.133a25.296 25.296 0 0 1-.308 3.005h-.852a3.51 3.51 0 0 0-3.317 2.505 21.384 21.384 0 0 1-1.402 3.376 3.51 3.51 0 0 0 .573 4.123l.608.608a24.964 24.964 0 0 1-5.664 5.665l-.608-.61a3.508 3.508 0 0 0-4.123-.572 21.397 21.397 0 0 1-3.376 1.402 3.51 3.51 0 0 0-2.505 3.317v.852a24.61 24.61 0 0 1-8.01 0v-.852a3.51 3.51 0 0 0-2.504-3.317 21.344 21.344 0 0 1-3.378-1.403 3.508 3.508 0 0 0-4.121.574l-.61.61a24.964 24.964 0 0 1-5.663-5.666l.609-.608a3.511 3.511 0 0 0 .572-4.123 21.384 21.384 0 0 1-1.402-3.376 3.51 3.51 0 0 0-3.317-2.505h-.852a24.52 24.52 0 0 1 0-8.01zM52.822 9.76l4.242-4.243 1.414 1.414-4.242 4.242zM46.596 6.205l2.208-5.58 1.86.736-2.208 5.58zM57.061 15.536l5.58-2.208.736 1.86-5.58 2.208z" fill="#FF4624" opacity="1" data-original="#000000"></path>
<path d="M19 36a8.963 8.963 0 0 1 6.3-8.588l-.6-1.908A11.01 11.01 0 0 0 17.916 40.4l1.833-.8A8.937 8.937 0 0 1 19 36zM20.8 41.4l-1.6 1.202A11.076 11.076 0 0 0 21.4 44.8l1.202-1.6a9.072 9.072 0 0 1-1.802-1.8zM24.4 44.252l-.8 1.832A11.009 11.009 0 0 0 38.496 39.3l-1.908-.6A9.01 9.01 0 0 1 24.4 44.252z" fill="#FF4624" opacity="1" data-original="#000000"></path>
</g>
</svg>