<svg class="h-8 w-8 md:h-10 md:w-10" xmlns="http://www.w3.org/2000/svg" version="1.1" xmlns:xlink="http://www.w3.org/1999/xlink" width="512" height="512" x="0" y="0" viewBox="0 0 60 60" style="enable-background:new 0 0 512 512" xml:space="preserve">
<g>
<g fill="#000" fill-rule="nonzero">
<path d="M60 21.93a1.92 1.92 0 0 0-.83-1.57 2.1 2.1 0 0 0-1.9-.23L47 24v-5.74l.31.21A2.92 2.92 0 0 0 49 19a3 3 0 0 0 1.7-5.47l-19-13A3 3 0 0 0 30 0a3 3 0 0 0-1.7.53l-19 13a3 3 0 0 0-.79 4.18A3 3 0 0 0 11 19a3 3 0 0 0 1.69-.52l.31-.22v6L2.75 20.15A2 2 0 0 0 0 22v27a2 2 0 0 0 2 2h.75a3 3 0 0 0 2.65-1.63l.84-1.67 1.76.82a3.17 3.17 0 0 0 2.97 4.29 3.17 3.17 0 0 0 1.14-.22 3.47 3.47 0 0 0 3.24 2.21c.417 0 .83-.074 1.22-.22a3.5 3.5 0 0 0 3.29 2.32 3.51 3.51 0 0 0 1.06-.17v.05a3 3 0 0 0 1.56 1.69 3 3 0 0 0 3.7-1l2.37 1.91a3.26 3.26 0 0 0 5.14-1.86 3 3 0 0 0 3-.8 3 3 0 0 0 .88-1.85c.143.01.287.01.43 0a3.67 3.67 0 0 0 3.64-3.14 4 4 0 0 0 1.23.21 3.82 3.82 0 0 0 3.83-3.83 3.81 3.81 0 0 0-.3-1.46L52.76 44l1.86 3.44A3 3 0 0 0 57.25 49H58a2 2 0 0 0 2-1.93zm-48.44-5.1a1 1 0 0 1-1.39-.26 1 1 0 0 1-.15-.76 1 1 0 0 1 .41-.63l19-13A.94.94 0 0 1 30 2a1 1 0 0 1 .57.18l19 13a1 1 0 0 1 .26 1.38 1 1 0 0 1-1.39.26L30.57 4.6a1 1 0 0 0-1.14 0zM30 6.63 45 16.9V25a2.75 2.75 0 0 0-.66 3.46l1 1.86-2.7 1a3 3 0 0 1-2.78-.32L35 27.41V22a2 2 0 0 0-2-2h-6a2 2 0 0 0-2 2v6.53a11.85 11.85 0 0 0-1 1.66 23.43 23.43 0 0 0-3.21.52A10.93 10.93 0 0 1 19 31a12.18 12.18 0 0 1-3.82-1.11l.48-1a3 3 0 0 0-.66-3.6V16.9zm3 19.42a5.77 5.77 0 0 0-6 .45V22h6zM2.75 49H2V22l11.38 4.62a1 1 0 0 1 .5 1.41L3.62 48.47a1 1 0 0 1-.87.53zm7.69 1.67a1.18 1.18 0 0 1-.58-1.56l1.14-2.4a1.18 1.18 0 0 1 1.56-.58c.286.126.507.365.61.66a1.2 1.2 0 0 1 0 .91L12 50.1a1.17 1.17 0 0 1-1.56.57zm5.39 2a1.46 1.46 0 0 1-1.14 0 1.46 1.46 0 0 1-.78-.84 1.53 1.53 0 0 1 0-1.15L15.63 47a1.5 1.5 0 0 1 .84-.78 1.58 1.58 0 0 1 1.15.04c.362.17.642.475.78.85a1.48 1.48 0 0 1 0 1.15l-1.72 3.64a1.52 1.52 0 0 1-.85.78zm3.4 2a1.52 1.52 0 0 1-.74-2L19.75 50a1.53 1.53 0 0 1 .84-.78 1.58 1.58 0 0 1 .52-.09 1.38 1.38 0 0 1 .63.14c.363.163.644.466.78.84.14.374.121.79-.05 1.15l-1.16 2.54-.08.17a1.5 1.5 0 0 1-2 .74zm4.09 1.88a1 1 0 0 1-.52-.56 1 1 0 0 1 0-.77l.31-.67.93-2A1 1 0 0 1 25 52a1 1 0 0 1 .42.09 1 1 0 0 1 .5 1.34l-1.25 2.71a1 1 0 0 1-1.35.47zm20.84-7.19a1.82 1.82 0 0 1-2.49.09l-4.86-4.26-1.15-1a.94.94 0 0 0-.35-.2.77.77 0 0 0-.15 0 1 1 0 0 0-.6.07 1.18 1.18 0 0 0-.31.24.94.94 0 0 0-.25.7.32.32 0 0 0 0 .09 1 1 0 0 0 .31.59l4.77 4.18a1.684 1.684 0 0 1-2.3 2.46l-.11-.11-4-4a1.004 1.004 0 0 0-1.42 1.42l4 4a1.11 1.11 0 0 1 0 1.58 1.16 1.16 0 0 1-1.59 0l-.86-.87-1.12-1.12a1 1 0 0 0-1.42 0 1 1 0 0 0 0 1.42l1.12 1.12c.245.235.383.56.38.9a1.28 1.28 0 0 1-2 1L27.1 55.6l.62-1.36a3 3 0 0 0-1.47-4 3 3 0 0 0-1.7-.23 3.92 3.92 0 0 0-.15-.59 3.48 3.48 0 0 0-3.95-2.22 3.49 3.49 0 0 0-4.67-2.86 3.54 3.54 0 0 0-1.29.85 3 3 0 0 0-1.12-.88 3.18 3.18 0 0 0-4.22 1.55l-.37.82-1.64-.78 7.14-14.22A14.23 14.23 0 0 0 19 33a11.6 11.6 0 0 0 2.17-.34c.56-.12 1.16-.24 1.79-.34L21.32 36A3.56 3.56 0 0 0 23 40.62h.1a3.54 3.54 0 0 0 4.18-.87l3.95-4.4 12.85 11.41a1.82 1.82 0 0 1 .08 2.66zm1-4.39-14.5-12.72a1 1 0 0 0-1.32 1.5l.36.32-3.94 4.39a1.58 1.58 0 0 1-1.88.38h-.07a1.58 1.58 0 0 1-.67-2l2.32-5.14a9.93 9.93 0 0 1 2.31-3.21 3.78 3.78 0 0 1 4.8-.28l6.09 4.44a5 5 0 0 0 4.67.62l3-1.11 5.47 10.11zm12.11 2a1 1 0 0 1-.88-.48l-10.27-19a.78.78 0 0 1-.05-.65.9.9 0 0 1 .54-.52L58 21.93V47z" fill="#FF4624" opacity="1" data-original="#000000"></path>
<path d="M30 18a4 4 0 1 0 0-8 4 4 0 0 0 0 8zm0-6a2 2 0 1 1 0 4 2 2 0 0 1 0-4z" fill="#FF4624" opacity="1" data-original="#000000"></path>
</g>
</g>
</svg>