<svg class="h-8 w-8 md:h-10 md:w-10" xmlns="http://www.w3.org/2000/svg" version="1.1" xmlns:xlink="http://www.w3.org/1999/xlink" width="512" height="512" x="0" y="0" viewBox="0 0 64 64" style="enable-background:new 0 0 512 512" xml:space="preserve">
<g>
<path d="M59.171 12a3.8 3.8 0 0 0-2.707 1.122L49 20.586V2a1 1 0 0 0-1-1H8a1 1 0 0 0-1 1v5H2a1 1 0 0 0-1 1v54a1 1 0 0 0 1 1h40a1 1 0 0 0 1-1v-5h5a1 1 0 0 0 1-1V31.414l12.878-12.878A3.828 3.828 0 0 0 59.171 12ZM39 38.586 36.414 36 51 21.414 53.586 24ZM33.9 41.1l1.433-3.345 1.911 1.911Zm-2.13-.1H27v2h4.01a.992.992 0 0 0 1.384.919L37 41.945V57H7V36h26.912Zm20.644-21L54 18.414 56.586 21 55 22.586ZM9 3h38v19.586l-4 4V8a1 1 0 0 0-1-1H9ZM3 61V9h38v19.586L35.586 34H6a1 1 0 0 0-1 1v23a1 1 0 0 0 1 1h32a1 1 0 0 0 1-1V41.088l.394-.169a1 1 0 0 0 .313-.212L41 39.414V61Zm44-6h-4V37.414l4-4Zm13.464-37.878L58 19.586 55.414 17l2.464-2.464a1.829 1.829 0 1 1 2.586 2.586Z" fill="#FF4624" opacity="1" data-original="#000000"></path>
<path d="M22 33a11 11 0 1 0-11-11 11.013 11.013 0 0 0 11 11Zm0-20a9 9 0 1 1-9 9 9.011 9.011 0 0 1 9-9Z" fill="#FF4624" opacity="1" data-original="#000000"></path>
<path d="M22 27a2 2 0 0 1-2-2h-2a4 4 0 0 0 3 3.858V30h2v-1.142A3.992 3.992 0 0 0 22 21a2 2 0 1 1 2-2h2a4 4 0 0 0-3-3.858V14h-2v1.142A3.992 3.992 0 0 0 22 23a2 2 0 0 1 0 4ZM13 41h12v2H13zM9 45h26v2H9zM9 49h26v2H9z" fill="#FF4624" opacity="1" data-original="#000000"></path>
</g>
</svg>