<svg class="h-8 w-8 md:h-10 md:w-10" xmlns="http://www.w3.org/2000/svg" version="1.1" xmlns:xlink="http://www.w3.org/1999/xlink" width="512" height="512" x="0" y="0" viewBox="0 0 64 64" style="enable-background:new 0 0 512 512" xml:space="preserve">
<g>
<path d="M43 37c-.551 0-1-.448-1-1h-2c0 1.654 1.346 3 3 3v2h2v-2h3v-3c0-1.654-1.346-3-3-3h-2c-.551 0-1-.448-1-1v-1h3c.551 0 1 .448 1 1h2c0-1.654-1.346-3-3-3v-2h-2v2h-3v3c0 1.654 1.346 3 3 3h2c.551 0 1 .448 1 1v1z" fill="#FF4624" opacity="1" data-original="#000000"></path>
<path d="M44 45c6.065 0 11-4.935 11-11s-4.935-11-11-11-11 4.935-11 11 4.935 11 11 11zm0-20c4.962 0 9 4.037 9 9s-4.038 9-9 9-9-4.037-9-9 4.038-9 9-9zM53 22h2v2h-2zM33 23h2v2h-2zM33 43h2v2h-2zM53 43h2v2h-2zM10 37h2V18H8.741L14 8.984 19.259 18H16v17h2V20h4.741L14 5.016 5.259 20H10zM10 39h2v2h-2zM16 37h2v2h-2zM16 41h2v2h-2z" fill="#FF4624" opacity="1" data-original="#000000"></path>
<path d="M59 45.004V22c0-1.654-1.346-3-3-3v-6c0-6.617-5.383-12-12-12S32 6.383 32 13v6c-1.654 0-3 1.346-3 3v26.138c-.021.014-.045.023-.066.038L27.697 49H25v-2H1v16h24v-2h25.835a9.007 9.007 0 0 0 7.373-3.839l4.061-5.802A4.02 4.02 0 0 0 63 49.041a4.044 4.044 0 0 0-4-4.037zM34 13c0-5.514 4.486-10 10-10s10 4.486 10 10v6h-4v-6c0-3.309-2.691-6-6-6s-6 2.691-6 6v6h-4zm14 6h-8v-6c0-2.206 1.794-4 4-4s4 1.794 4 4zm-17 3c0-.552.449-1 1-1h24c.551 0 1 .448 1 1v23.325c-.668.274-1.271.703-1.712 1.292L53.5 49h-4.685a2.996 2.996 0 0 0-2.816-2H32.816c-.62 0-1.227.093-1.816.252zm17.899 29H52l-.6.8A3.012 3.012 0 0 1 49 53h-1.023a4.941 4.941 0 0 0 .922-2zM3 49h12v12H3zm20 12h-2v-8h-2v8h-2V49h2v2h2v-2h2zm37.631-10.788-4.062 5.803A7.005 7.005 0 0 1 50.835 59H25v-8h3.303l1.74-1.16a4.979 4.979 0 0 1 2.773-.84H46c.551 0 1 .448 1 1 0 .802-.313 1.557-.88 2.124a2.984 2.984 0 0 1-2.093.876H42v.002l-4.34-.001h-.005a4.97 4.97 0 0 0-3.535 1.465l-.827.827 1.414 1.414.827-.827a2.984 2.984 0 0 1 2.122-.879h.002l6.337.002h.002l.03-.003H49a5.022 5.022 0 0 0 4-2l3.887-5.183A2.055 2.055 0 0 1 58.521 47h.438a2.044 2.044 0 0 1 1.672 3.212z" fill="#FF4624" opacity="1" data-original="#000000"></path>
</g>
</svg>