<svg class="h-8 w-8 md:h-10 md:w-10" xmlns="http://www.w3.org/2000/svg" version="1.1" xmlns:xlink="http://www.w3.org/1999/xlink" width="512" height="512" x="0" y="0" viewBox="0 0 60 60" style="enable-background:new 0 0 512 512" xml:space="preserve">
<g>
<path d="M58 38h-8.481a28.129 28.129 0 0 0-10.443-15.843 2.984 2.984 0 0 0-.833-4.879l2.6-9.181A3.995 3.995 0 0 0 37.009 3H35.2a6 6 0 0 0-10.4 0h-1.81a3.994 3.994 0 0 0-3.832 5.092l2.6 9.186a2.984 2.984 0 0 0-.831 4.881A28.351 28.351 0 0 0 10.48 38H3a2.987 2.987 0 0 0-2.22 5 2.954 2.954 0 0 0 0 4 2.971 2.971 0 0 0 .62 4.529 2.9 2.9 0 0 0 0 2.942A2.994 2.994 0 0 0 3 60h16a2.992 2.992 0 0 0 2.661-1.644A22.041 22.041 0 0 0 30 60h28a2 2 0 0 0 2-2V40a2 2 0 0 0-2-2Zm0 4.858A3.991 3.991 0 0 1 55.142 40H58ZM23 21a1 1 0 0 1 0-2h14a1 1 0 0 1 0 2ZM21.406 5.794A1.969 1.969 0 0 1 22.989 5h1.1A6.034 6.034 0 0 0 24 6v4a1 1 0 0 0 2 0V6a3.962 3.962 0 0 1 .332-1.6 4 4 0 0 1 7.334 0A3.962 3.962 0 0 1 34 6v4a1 1 0 0 0 2 0V6a6.034 6.034 0 0 0-.09-1h1.1a2 2 0 0 1 1.908 2.548L36.244 17H23.756l-2.675-9.457a1.977 1.977 0 0 1 .325-1.749ZM3 40h16a1 1 0 0 1 0 2H3a1 1 0 0 1 0-2Zm0 13a1 1 0 0 1 1-1h16a1 1 0 0 1 0 2H4a1 1 0 0 1-1-1Zm0-3a1 1 0 0 1 0-2h16a1 1 0 0 1 0 2H3Zm-1-5a1 1 0 0 1 1-1h16a1 1 0 0 1 0 2H3a1 1 0 0 1-1-1Zm17 13H3a1 1 0 0 1 0-2h16a1 1 0 0 1 0 2Zm2.9-1.724a3 3 0 0 0-.3-.747 2.983 2.983 0 0 0 0-5.058A2.931 2.931 0 0 0 21.22 47a2.954 2.954 0 0 0 0-4A2.987 2.987 0 0 0 19 38h-6.473c1.478-5.888 5.921-12.127 10.758-15h13.429C42.852 26.638 48 35.27 48 42c0 8.822-8.075 16-18 16a19.988 19.988 0 0 1-8.1-1.724ZM50 42a16.9 16.9 0 0 0-.137-2h3.227A6.008 6.008 0 0 0 58 44.91v8.18A6.008 6.008 0 0 0 53.09 58H39.121C45.571 55.009 50 48.967 50 42Zm5.142 16A3.991 3.991 0 0 1 58 55.142V58Z" fill="#FF4624" opacity="1" data-original="#000000"></path>
<path d="M54 52a3 3 0 1 0-3-3 3 3 0 0 0 3 3Zm0-4a1 1 0 1 1-1 1 1 1 0 0 1 1-1ZM33 36a1 1 0 0 0 2 0 5.009 5.009 0 0 0-4-4.9V31a1 1 0 0 0-2 0v.1a5 5 0 0 0 0 9.8v5.917A3 3 0 0 1 27 44a1 1 0 0 0-2 0 5.009 5.009 0 0 0 4 4.9v.1a1 1 0 0 0 2 0v-.1a5 5 0 0 0 0-9.8v-5.916A3 3 0 0 1 33 36Zm-6 0a3 3 0 0 1 2-2.816v5.632A3 3 0 0 1 27 36Zm6 8a3 3 0 0 1-2 2.816v-5.632A3 3 0 0 1 33 44Z" fill="#FF4624" opacity="1" data-original="#000000"></path>
</g>
</svg>