<svg xmlns="http://www.w3.org/2000/svg" xmlns:xlink="http://www.w3.org/1999/xlink" class="h-8 w-8 md:h-12 md:w-12" viewBox="0 0 100 100" style="enable-background:new 0 0 512 512" xml:space="preserve">
<g>
<path fill="#CCCCCC" d="M6.39 7.49h54.28V95H6.39z" opacity="1" data-original="#cccccc">
</path>
<path d="M60.68 9.49v4.44a54.28 54.28 0 0 0-47.29 53.83V95h-7V9.49z" opacity="1" fill="#000000" data-original="#00000005" fill-opacity="0.02"></path>
<path fill="#999999" d="M60.68 95H6.39a1 1 0 0 1 0-2h54.29a1 1 0 1 1 0 2z" opacity="1" data-original="#999999"></path>
<rect width="56.61" height="9.29" x="5.09" y="7.3" fill="#999999" rx="1.92" opacity="1" data-original="#999999"></rect>
<g fill="#94BCDD">
<path d="M22.41 69.83h22.87V95H22.41z" fill="#94BCDD" opacity="1" data-original="#94bcdd"></path>
<rect width="7.94" height="7.98" x="23.57" y="57.36" rx=".83" fill="#94BCDD" opacity="1" data-original="#94bcdd"></rect>
<rect width="7.94" height="7.98" x="35.54" y="57.36" rx=".83" fill="#94BCDD" opacity="1" data-original="#94bcdd"></rect>
<rect width="7.94" height="7.98" x="47.52" y="57.36" rx=".83" fill="#94BCDD" opacity="1" data-original="#94bcdd"></rect>
<rect width="7.94" height="7.98" x="11.59" y="57.36" rx=".83" fill="#94BCDD" opacity="1" data-original="#94bcdd"></rect>
<rect width="7.94" height="7.98" x="23.57" y="46.36" rx=".83" fill="#94BCDD" opacity="1" data-original="#94bcdd"></rect>
<rect width="7.94" height="7.98" x="35.54" y="46.36" rx=".83" fill="#94BCDD" opacity="1" data-original="#94bcdd"></rect>
<rect width="7.94" height="7.98" x="47.52" y="46.36" rx=".83" fill="#94BCDD" opacity="1" data-original="#94bcdd"></rect>
<rect width="7.94" height="7.98" x="11.59" y="46.36" rx=".83" fill="#94BCDD" opacity="1" data-original="#94bcdd"></rect>
<rect width="7.94" height="7.98" x="23.57" y="34.84" rx=".83" fill="#94BCDD" opacity="1" data-original="#94bcdd"></rect>
<rect width="7.94" height="7.98" x="35.54" y="34.84" rx=".83" fill="#94BCDD" opacity="1" data-original="#94bcdd"></rect>
<rect width="7.94" height="7.98" x="47.52" y="34.84" rx=".83" fill="#94BCDD" opacity="1" data-original="#94bcdd"></rect>
<rect width="7.94" height="7.98" x="11.59" y="34.84" rx=".83" fill="#94BCDD" opacity="1" data-original="#94bcdd"></rect>
<rect width="7.94" height="7.98" x="23.57" y="23.32" rx=".83" fill="#94BCDD" opacity="1" data-original="#94bcdd"></rect>
<rect width="7.94" height="7.98" x="35.54" y="23.32" rx=".83" fill="#94BCDD" opacity="1" data-original="#94bcdd"></rect>
<rect width="7.94" height="7.98" x="47.52" y="23.32" rx=".83" fill="#94BCDD" opacity="1" data-original="#94bcdd"></rect>
<rect width="7.94" height="7.98" x="11.59" y="23.32" rx=".83" fill="#94BCDD" opacity="1" data-original="#94bcdd"></rect>
</g>
<path fill="#4A7296" d="M33.34 71.42h1V95h-1z" opacity="1" data-original="#4a729650" fill-opacity="0.314"></path>
<rect width="26.68" height="4.44" x="20.5" y="69.19" fill="#999999" rx="1.09" opacity="1" data-original="#999999"></rect>
<path fill="#E6E6E6" d="M87.08 65.52v29.6h-30.8V65.45a18.74 18.74 0 0 0 10.14-5.27H77a19.17 19.17 0 0 0 10.08 5.34z" opacity="1" data-original="#e6e6e6"></path>
<path fill="#D83A46" d="m72.81 69.83.8 2.67-1.59 2.39L70 72.17l.86-2.34-1.96-2.72 2.93-1.34 2.94 1.34z" opacity="1" data-original="#d83a46"></path>
<path fill="#DFA26F" d="M84.65 42.48s4.2-1.94 3.75 2.25c-.68 6.34-5.46 5.92-5.39 5.12s1.64-7.37 1.64-7.37z" opacity="1" data-original="#dfa26f"></path>
<path d="M85.45 45.56a15.23 15.23 0 0 1-.54 3A3.69 3.69 0 0 0 87 45.22c.17-1.49-.69-1.78-1.48-1.75a16.08 16.08 0 0 1-.07 2.09z" opacity="1" fill="#000000" data-original="#00000010" fill-opacity="0.063"></path>
<path fill="#DFA26F" d="M71.68 65.45a5.26 5.26 0 0 1-5.26-5.27v-6.52H77v6.54a5.26 5.26 0 0 1-5.32 5.25z" opacity="1" data-original="#dfa26f"></path>
<path d="M76.93 54.65v1.84c0 3.4-2.36 6.15-5.25 6.15s-5.12-2.59-5.25-5.84v-2.15z" opacity="1" fill="#000000" data-original="#00000030" fill-opacity="0.19"></path>
<path fill="#DFA26F" d="M71.68 65.45a5.26 5.26 0 0 1-5.26-5.27v-6.52H77v6.54a5.26 5.26 0 0 1-5.32 5.25z" opacity="1" data-original="#dfa26f"></path>
<path d="M76.93 54.65v1.84c0 3.4-2.36 6.15-5.25 6.15s-5.12-2.59-5.25-5.84v-2.15z" opacity="1" fill="#000000" data-original="#00000010" fill-opacity="0.063"></path>
<ellipse cx="72.02" cy="44.41" fill="#DFA26F" rx="13.38" ry="15.21" opacity="1" data-original="#dfa26f"></ellipse>
<path fill="#DFA26F" d="M59.35 42.48s-4.2-1.94-3.75 2.25c.67 6.34 5.46 5.92 5.39 5.12s-1.64-7.37-1.64-7.37z" opacity="1" data-original="#dfa26f"></path>
<path d="M58.54 45.56a16 16 0 0 0 .54 3A3.73 3.73 0 0 1 57 45.22c-.16-1.49.69-1.78 1.49-1.75a18.09 18.09 0 0 0 .05 2.09z" opacity="1" fill="#000000" data-original="#00000010" fill-opacity="0.063"></path>
<path fill="#754C24" d="M58.49 44.41s.15-5.56 5.09-11.53c0 0 12.11 4.09 17.14 1.28 0 0 3.27 2.24 4.79 9.91 0 0 2-5.78.24-11.17-2.1-6.35-13.3-12.71-23.36-5.43 0 0-8.39 1.21-3.9 16.94z" opacity="1" data-original="#754c24"></path>
<path fill="#4D4D4D" d="M94.17 95.12h-45c.08-27.49 5.79-29.56 7.12-29.66a18.78 18.78 0 0 0 10.15-5.27v1.86a15.07 15.07 0 0 0 3 8.86L72 74.38l2.39-3.6a15.19 15.19 0 0 0 2.61-8.4v-2.2a19.11 19.11 0 0 0 10.13 5.33c1.32.15 6.97 2.33 7.04 29.61z" opacity="1" data-original="#4d4d4d"></path>
<path fill="#333333" d="M71.51 95.12V79a.5.5 0 0 1 .5-.5.5.5 0 0 1 .5.5v16.11h-1z" opacity="1" data-original="#333333"></path>
<path fill="#333333" d="M82.15 68.79a.5.5 0 0 1-.36.55L78 70.4l.87 3.67a.51.51 0 0 1-.19.51l-6.32 4.74a.61.61 0 0 1-.14.07.44.44 0 0 1-.32 0h-.07a.18.18 0 0 1-.07 0h-.06a.5.5 0 0 1 .1-.7l.3-.23L77.82 74l-.91-3.81a.51.51 0 0 1 .36-.6l3.82-1.07-.85-5.68c.38.24.75.47 1.11.66z" opacity="1" data-original="#333333"></path>
<path fill="#333333" d="m72.42 79.25-.07.08a.61.61 0 0 1-.14.07.44.44 0 0 1-.32 0 .39.39 0 0 1-.14-.08h-.06l-6.3-4.81a.48.48 0 0 1-.18-.51l.79-3.7-3.79-1.06a.51.51 0 0 1-.36-.55l.89-5.69c.33-.2.66-.41 1-.64a.46.46 0 0 1 .07.33L63 68.4l3.83 1.07a.51.51 0 0 1 .35.6l-.91 3.81L72 78.32l.3.23a.5.5 0 0 1 .12.7zM86.28 95.12V78.18a.5.5 0 0 1 .5-.5.5.5 0 0 1 .5.5v16.94zM56.06 95.12V78.18a.5.5 0 0 1 .5-.5.5.5 0 0 1 .5.5v16.94z" opacity="1" data-original="#333333"></path>
<path d="M77.35 25.17a15.89 15.89 0 0 0-11.78 3.09s-5.55.81-5.2 9.61a17.89 17.89 0 0 0-1.88 6.54C54 28.68 62.4 27.47 62.4 27.47a15.77 15.77 0 0 1 14.95-2.3z" opacity="1" fill="#000000" data-original="#00000010" fill-opacity="0.063"></path>
</g>
</svg>