<svg xmlns="http://www.w3.org/2000/svg" xmlns:xlink="http://www.w3.org/1999/xlink" class="h-8 w-8 md:h-12 md:w-12" width="512" height="512" x="0" y="0" viewBox="0 0 16.933 16.933" style="enable-background:new 0 0 512 512" xml:space="preserve">
<g>
<path fill="#FF5151" d="M13.229 2.646v2.383c0 .186.19.313.363.244l2.646-1.059a.265.265 0 0 0 .02-.48l-2.646-1.325a.265.265 0 0 0-.383.237z" opacity="1" data-original="#ff5151"></path>
<path fill="#FF2929" d="M13.484 2.382a.265.265 0 0 0-.255.264v2.383c0 .186.19.313.363.244l.695-.278V2.747l-.675-.338a.265.265 0 0 0-.128-.027z" opacity="1" data-original="#ff2929"></path>
<path fill="#E4EFF8" d="M15.61 5.556c.44 0 .794.354.794.794v9.26c0 .44-.354.794-.794.794H1.45c-.468 0-.92-.41-.92-.86V5.556" opacity="1" data-original="#e4eff8"></path>
<path fill="#C4DCF0" d="M16.404 15.61c0 .44-.354.794-.794.794H1.444a.967.967 0 0 1-.864-.598c.106.044.22.069.335.069H15.08c.44 0 .794-.354.794-.794V5.817a.787.787 0 0 0-.037-.228.79.79 0 0 1 .566.757z" opacity="1" data-original="#c4dcf0"></path>
<path fill="#549AD4" d="M.53 5.292c0-.587.471-1.059 1.058-1.059.586 0 1.058.472 1.058 1.059v8.466c0 .44-.354.794-.794.794h-.397a.924.924 0 0 0-.926.926z" opacity="1" data-original="#549ad4"></path>
<path fill="#3588CB" d="M2.646 5.29v8.468c0 .44-.354.794-.794.794h-.397a.924.924 0 0 0-.926.926v-1.364a.922.922 0 0 1 .397-.091h.397c.44 0 .794-.354.794-.794V4.76c0-.155-.035-.302-.095-.434.368.165.624.533.624.964z" opacity="1" data-original="#3588cb"></path>
<path fill="#FFCA28" d="M10.319 3.969a3.175 3.175 0 1 1-6.35 0 3.175 3.175 0 0 1 6.35 0z" opacity="1" data-original="#ffca28"></path>
<path fill="#ECB200" d="M7.144.794a3.175 3.175 0 0 0-2.485 1.204 3.175 3.175 0 0 1 5.13 2.5 3.175 3.175 0 0 1-.69 1.97A3.175 3.175 0 0 0 7.145.794z" opacity="1" data-original="#ecb200"></path>
<g fill="#549AD4">
<path d="M7.14 1.848a.265.265 0 0 0-.261.27v1.85c0 .071.028.139.078.188l.793.793c.249.267.64-.123.375-.373l-.717-.717V2.117a.265.265 0 0 0-.267-.27zM5.29 13.494a.265.265 0 0 0-.145.045l-.793.527c-.295.196-.002.637.293.442l.646-.432.648.432a.265.265 0 0 0 .293 0l.647-.432.646.432c.09.06.206.06.295 0l.647-.432.646.432c.295.196.588-.246.293-.442l-.793-.527a.265.265 0 0 0-.293 0l-.646.43-.649-.43a.265.265 0 0 0-.293 0l-.646.43-.648-.43a.265.265 0 0 0-.149-.045zM5.29 12.17a.265.265 0 0 0-.145.045l-.793.53c-.295.194-.002.636.293.44l.646-.431.648.432a.265.265 0 0 0 .293 0l.647-.432.646.432c.09.06.206.06.295 0l.647-.432.646.432c.295.196.589-.247.293-.442l-.793-.53a.265.265 0 0 0-.293 0l-.646.432-.649-.431a.265.265 0 0 0-.293 0l-.646.431-.648-.431a.265.265 0 0 0-.149-.045z" fill="#549AD4" opacity="1" data-original="#549ad4"></path>
</g>
<path fill="#FFCA28" d="M13.228 13.23c-.353 0-.353.528 0 .528h.266c.353 0 .353-.529 0-.529z" opacity="1" data-original="#ffca28"></path>
<path fill="#FF5151" d="M11.905 13.23c-.353 0-.353.528 0 .528h.266c.353 0 .353-.529 0-.529zM14.552 13.23c-.353 0-.353.528 0 .528h.266c.353 0 .353-.529 0-.529z" opacity="1" data-original="#ff5151"></path>
<path fill="#FFCA28" d="M14.738 11.19c.242.243-.111.62-.374.374l-.794-.794a.266.266 0 0 1 .189-.453.272.272 0 0 1 .186.078z" opacity="1" data-original="#ffca28"></path>
<path fill="#FFCA28" d="M13.573 11.19c-.242.243.11.62.374.374l.794-.794a.266.266 0 0 0-.19-.453.272.272 0 0 0-.185.078z" opacity="1" data-original="#ffca28"></path>
<path fill="#549AD4" d="M10.769 8.544c.242.243-.11.62-.374.374L9.6 8.124a.266.266 0 0 1 .19-.453.272.272 0 0 1 .185.078z" opacity="1" data-original="#549ad4"></path>
<path fill="#549AD4" d="M9.604 8.544c-.242.243.11.62.374.374l.794-.794a.266.266 0 0 0-.19-.453.272.272 0 0 0-.185.078zM13.758 2.381c0-.353-.529-.353-.529 0v5.16c0 .353.53.353.53 0z" opacity="1" data-original="#549ad4"></path>
<path fill="#FF5151" d="M12.965 7.408h1.058c.147 0 .265.118.265.265v.794a.264.264 0 0 1-.265.264h-1.058a.264.264 0 0 1-.265-.264v-.794c0-.147.118-.265.265-.265z" opacity="1" data-original="#ff5151"></path>
<path fill="#FF2929" d="M12.965 7.408a.264.264 0 0 0-.265.265v.794c0 .146.118.264.265.264h1.058a.264.264 0 0 0 .265-.264v-.265h-.794a.264.264 0 0 1-.265-.265v-.529z" opacity="1" data-original="#ff2929"></path>
<path fill="#FFCA28" d="M7.58 9a.265.265 0 0 0-.137.48l2.245 1.618c.288.22.608-.227.308-.43L7.754 9.051A.265.265 0 0 0 7.58 9zM12.7 8.467c-.353 0-.353.529 0 .529h1.588c.352 0 .352-.53 0-.53z" opacity="1" data-original="#ffca28"></path>
<path fill="#FFCA28" d="M10.532 10.773c-.284.21.03.636.314.427l2.984-2.196c.284-.209-.03-.635-.314-.426z" opacity="1" data-original="#ffca28"></path>
<path fill="#FF5151" d="M11.113 11.113a.794.794 0 1 1-1.588 0 .794.794 0 0 1 1.588 0z" opacity="1" data-original="#ff5151"></path>
<path fill="#FF5151" d="M11.113 11.113a.794.794 0 1 1-1.588 0 .794.794 0 0 1 1.588 0z" opacity="1" data-original="#ff5151"></path>
<path fill="#FF2929" d="M9.525 11.113a.794.794 0 0 0 1.553.23.794.794 0 0 1-.99-.99.794.794 0 0 0-.563.76z" opacity="1" data-original="#ff2929"></path>
<path fill="#FFCA28" d="M3.815 11.16c-.285.208.03.635.313.425L7.112 9.39c.284-.209-.03-.635-.314-.426z" opacity="1" data-original="#ffca28"></path>
<path fill="#FF5151" d="M7.938 8.996a.794.794 0 1 1-1.588 0 .794.794 0 0 1 1.588 0z" opacity="1" data-original="#ff5151"></path>
<path fill="#FF2929" d="M6.914 8.237a.794.794 0 1 0 .989.989.794.794 0 0 1-.99-.99z" opacity="1" data-original="#ff2929"></path>
<path fill="#FFCA28" d="M13.758.794c0-.353-.529-.353-.529 0v.266c0 .353.53.353.53 0zM14.927 1.587c.25-.25-.125-.624-.374-.375l-.188.188c-.25.25.125.624.374.375zM12.06 1.587c-.25-.25.125-.624.375-.375l.187.188c.25.25-.124.624-.374.375z" opacity="1" data-original="#ffca28"></path>
<path fill="#3588CB" d="M10.054 3.704c-.353 0-.353.53 0 .53h.251c.009-.089.013-.177.014-.265a3.18 3.18 0 0 0-.013-.265z" opacity="1" data-original="#3588cb"></path>
<path fill="#549AD4" d="M3.982 3.704a3.174 3.174 0 0 0-.013.265c0 .088.004.176.012.264h.252c.353 0 .353-.529 0-.529zM7.144 6.615c-.133 0-.265.088-.265.264v.251c.088.008.176.013.265.014.088 0 .176-.005.264-.013V6.88c0-.176-.132-.264-.264-.264z" opacity="1" data-original="#549ad4"></path>
<path fill="#3588CB" d="M7.144.794c-.089 0-.177.004-.265.012v.252c0 .353.53.353.53 0v-.25a3.175 3.175 0 0 0-.265-.014z" opacity="1" data-original="#3588cb"></path>
</g>
</svg>