<svg xmlns="http://www.w3.org/2000/svg" xmlns:xlink="http://www.w3.org/1999/xlink" class="h-8 w-8 md:h-12 md:w-12" width="512" height="512" x="0" y="0" viewBox="0 0 512 512" style="enable-background:new 0 0 512 512" xml:space="preserve">
<g>
<g fill-rule="evenodd" clip-rule="evenodd">
<path fill="#003748" d="m348.499 340.632-163.333 2.094-36.288 62.269c-1.594 2.736.562 5.736 3.296 5.736h230.535c2.734 0 4.89-3 3.296-5.736z" opacity="1" data-original="#003748"></path>
<path fill="#E6F8FF" d="M477.981 9.001c13.499 0 24.545 11.044 24.545 24.545V329.02c0 13.501-11.046 24.546-24.545 24.546H56.902c-13.5 0-24.545-11.044-24.545-24.546V33.546c0-13.501 11.046-24.545 24.545-24.545z" opacity="1" data-original="#e6f8ff"></path>
<path fill="#004960" d="M502.527 312.468H32.357v16.553c0 13.501 11.046 24.545 24.545 24.545h421.079c13.499 0 24.545-11.044 24.545-24.545v-16.553z" opacity="1" data-original="#004960"></path>
<path fill="#FFDA2D" d="M377.13 207.27h22.245a5.721 5.721 0 0 1 5.71 5.71v84.26a5.721 5.721 0 0 1-5.71 5.71H377.13a5.721 5.721 0 0 1-5.71-5.71v-84.26c-.001-3.145 2.565-5.71 5.71-5.71z" opacity="1" data-original="#ffda2d"></path>
<path fill="#72D561" d="M318.341 179.322h22.244a5.721 5.721 0 0 1 5.71 5.71v112.207a5.721 5.721 0 0 1-5.71 5.71h-22.244a5.721 5.721 0 0 1-5.71-5.71V185.032a5.721 5.721 0 0 1 5.71-5.71z" opacity="1" data-original="#72d561"></path>
<path fill="#FC685B" d="M259.552 244.309h22.244a5.721 5.721 0 0 1 5.71 5.71v47.22a5.721 5.721 0 0 1-5.71 5.71h-22.244a5.721 5.721 0 0 1-5.71-5.71v-47.22a5.721 5.721 0 0 1 5.71-5.71z" opacity="1" data-original="#fc685b"></path>
<g fill="#64B5F6">
<path d="M435.919 152.991h22.244a5.721 5.721 0 0 1 5.71 5.71v138.538a5.721 5.721 0 0 1-5.71 5.71h-22.244a5.721 5.721 0 0 1-5.71-5.71V158.701a5.72 5.72 0 0 1 5.71-5.71z" fill="#64B5F6" opacity="1" data-original="#64b5f6"></path>
<path d="M276.682 212.11a7.592 7.592 0 0 1-12.016-9.28l58.789-76.435a7.591 7.591 0 0 1 10.369-1.573l53.67 35.966 42.739-39.46-5.806-.273a7.592 7.592 0 0 1 .714-15.168l24.782 1.167a7.592 7.592 0 0 1 7.037 9.311l-4.364 24.022a7.585 7.585 0 0 1-14.931-2.677l.559-3.074-44.827 41.388-.006-.007a7.592 7.592 0 0 1-9.363.72l-52.883-35.438z" fill="#64B5F6" opacity="1" data-original="#64b5f6"></path>
</g>
<path fill="#8D9CA8" d="M253.842 55.516a7.614 7.614 0 0 1 0-15.228h114.855a7.614 7.614 0 0 1 0 15.228zM78.341 289.585a7.614 7.614 0 0 1 0-15.228h123.591a7.614 7.614 0 0 1 0 15.228zm0-31.418a7.585 7.585 0 0 1 0-15.168h123.591a7.584 7.584 0 0 1 0 15.168zm0-31.358a7.614 7.614 0 0 1 0-15.228h123.591a7.614 7.614 0 0 1 0 15.228zm175.501-108.517a7.614 7.614 0 0 1 0-15.228h114.855a7.614 7.614 0 0 1 0 15.228zm0-31.417a7.585 7.585 0 0 1 0-15.168h114.855a7.584 7.584 0 0 1 0 15.168z" opacity="1" data-original="#8d9ca8"></path>
<circle cx="140.136" cy="115.705" r="75.94" fill="#64B5F6" transform="rotate(-73.98 140.192 115.73)" opacity="1" data-original="#64b5f6">
</circle>
<path fill="#FFDA2D" d="m140.136 39.764-.001 75.941 69.747 30.088c3.986-9.226 6.194-19.399 6.194-30.089.001-41.94-33.999-75.94-75.94-75.94z" opacity="1" data-original="#ffda2d"></path>
<path fill="#72D561" d="m209.883 145.794-69.747-30.089-45.602 60.73c12.699 9.55 28.489 15.211 45.602 15.211 31.252-.001 58.094-18.878 69.747-45.852z" opacity="1" data-original="#72d561"></path>
<path fill="#EFF4F7" d="M140.136 147.577c17.555 0 31.873-14.318 31.873-31.873s-14.318-31.873-31.873-31.873c-17.554 0-31.872 14.318-31.872 31.873 0 17.556 14.318 31.873 31.872 31.873z" opacity="1" data-original="#eff4f7"></path>
<path fill="#8D9CA8" d="M94.501 433.487 79.5 417.457l30.314-30.314 16.074 14.957z" opacity="1" data-original="#8d9ca8"></path>
<circle cx="176.073" cy="336.398" r="91.891" fill="#64B5F6" transform="rotate(-45 176.025 336.456)" opacity="1" data-original="#64b5f6">
</circle>
<path fill="#E6F8FF" d="M176.072 268.046c-37.75 0-68.353 30.603-68.353 68.353s30.603 68.353 68.353 68.353 68.353-30.602 68.353-68.353-30.602-68.353-68.353-68.353z" opacity="1" data-original="#e6f8ff"></path>
<path fill="#C97629" d="m83.407 409.111 19.954 19.954a5.306 5.306 0 0 1 0 7.489l-60.785 60.785c-7.547 7.547-19.895 7.547-27.442 0-7.547-7.548-7.547-19.895 0-27.442l60.784-60.785a5.306 5.306 0 0 1 7.489-.001z" opacity="1" data-original="#c97629"></path>
<path fill="#DA8C36" d="m103.36 436.554-13.929 13.928L61.99 423.04l13.929-13.929a5.306 5.306 0 0 1 7.489 0l19.953 19.954a5.306 5.306 0 0 1-.001 7.489z" opacity="1" data-original="#da8c36"></path>
</g>
</g>
</svg>