<svg xmlns="http://www.w3.org/2000/svg" xmlns:xlink="http://www.w3.org/1999/xlink" class="h-8 w-8 md:h-12 md:w-12" width="512" height="512" x="0" y="0" viewBox="0 0 512 512" style="enable-background:new 0 0 512 512" xml:space="preserve">
<g>
<path fill="#E2E5E7" fill-rule="evenodd" d="M151.676 451.282h347.706V81.669L427.713 10H151.676z" opacity="1" data-original="#e2e5e7"></path>
<path fill="#3CB54B" d="M380.212 247.226h45.178v165.135h-45.178z" opacity="1" data-original="#3cb54b"></path>
<path fill="#FFCB5B" d="M302.94 282.552h45.178v129.809H302.94z" opacity="1" data-original="#ffcb5b"></path>
<path fill="#EE2B39" d="M225.668 319.149h45.178v93.212h-45.178z" opacity="1" data-original="#ee2b39"></path>
<g fill-rule="evenodd">
<path fill="#B0B7BD" d="M499.382 81.669 427.713 10v71.669z" opacity="1" data-original="#b0b7bd"></path>
<path fill="#595A66" d="m430.136 154.535.006.007c.089.115.174.234.255.356l.009.014c.078.119.152.241.222.365l.009.017.064.118.003.006a5.97 5.97 0 0 1 .686 2.787v19.823a6 6 0 1 1-12 0v-5.338l-61.672 61.671a6.001 6.001 0 0 1-7.707.655l-47.358-27.342-72.742 72.741a5.999 5.999 0 1 1-8.484-8.484l75.979-75.977.017.017a5.977 5.977 0 0 1 7.202-.955l47.847 27.624 58.436-58.435h-5.339a6 6 0 1 1 0-12h19.823c1.931 0 3.649.913 4.747 2.33zM255.688 109.706a6 6 0 1 1 0-12h84.091a6 6 0 1 1 0 12zm-46.863 24.75a6 6 0 1 1 0-12h16.205a6 6 0 1 1 0 12zm46.863 0a6 6 0 1 1 0-12h84.091a6 6 0 1 1 0 12zm-46.863 24.75a6 6 0 1 1 0-12h16.205a6 6 0 1 1 0 12zm46.863 0a6 6 0 1 1 0-12h84.091a6 6 0 1 1 0 12zm-46.863-49.5a6 6 0 1 1 0-12h16.205a6 6 0 1 1 0 12z" opacity="1" data-original="#595a66"></path>
</g>
<path fill="#F7B84E" d="M302.94 282.552h19.162v129.809H302.94z" opacity="1" data-original="#f7b84e"></path>
<path fill="#0F9347" d="M380.212 247.226h19.162v165.135h-19.162z" opacity="1" data-original="#0f9347"></path>
<path fill="#CAD1D8" d="M151.676 10h23.131v278.005h-23.131z" opacity="1" data-original="#cad1d8"></path>
<path fill="#595A66" d="m36.674 461.811 48.887-48.886 16.039 16.039-48.887 48.886z" opacity="1" data-original="#595a66"></path>
<path fill="#494A52" d="m36.675 461.808 48.885-48.885 8.02 8.02-48.886 48.885z" opacity="1" data-original="#494a52"></path>
<circle cx="152.216" cy="362.402" r="88.88" fill="#1B6FAB" opacity="1" data-original="#1b6fab"></circle>
<path fill="#CD212D" d="M225.668 319.149h19.162v93.212h-19.162z" opacity="1" data-original="#cd212d"></path>
<path fill="#3589C9" fill-rule="evenodd" d="M215.064 299.554c34.71 34.71 34.71 90.986 0 125.696-15.206 15.207-34.552 23.75-54.41 25.633-19.858-1.882-39.204-10.426-54.41-25.633-34.71-34.71-34.71-90.986 0-125.696 15.207-15.206 34.552-23.75 54.41-25.633 19.858 1.882 39.204 10.426 54.41 25.633z" opacity="1" data-original="#3589c9"></path>
<circle cx="152.216" cy="362.402" r="64.426" fill="#CAD1D8" opacity="1" data-original="#cad1d8"></circle>
<path fill="#E2E5E7" fill-rule="evenodd" d="M197.772 316.846c25.16 25.16 25.16 65.952 0 91.112a64.144 64.144 0 0 1-37.119 18.314 64.14 64.14 0 0 1-37.119-18.314c-25.16-25.16-25.16-65.952 0-91.112a64.138 64.138 0 0 1 37.119-18.314 64.14 64.14 0 0 1 37.119 18.314z" opacity="1" data-original="#e2e5e7"></path>
<path fill="#3589C9" d="m14.165 476.558 23.748-23.749a5.486 5.486 0 0 1 7.755 0l16.04 16.04a5.486 5.486 0 0 1 0 7.755l-23.749 23.748a5.486 5.486 0 0 1-7.754 0l-16.04-16.04a5.485 5.485 0 0 1 0-7.753z" opacity="1" data-original="#3589c9"></path>
<path fill="#1B6FAB" fill-rule="evenodd" d="m14.218 484.358 8.021 8.021 31.507-31.507-8.021-8.021c-2.132-2.132-5.623-2.132-7.755 0l-23.751 23.752c-2.133 2.132-2.133 5.623 0 7.755z" opacity="1" data-original="#1b6fab"></path>
<path fill="#FAA845" fill-rule="evenodd" d="M158.216 402.097a6 6 0 1 1-12 0v-4.549c-4.18-.953-7.942-2.874-10.95-5.475-4.625-3.999-7.486-9.582-7.486-15.797a6 6 0 1 1 12 0c0 2.589 1.267 4.98 3.314 6.75 2.281 1.973 5.502 3.193 9.122 3.193s6.841-1.22 9.122-3.193c2.047-1.77 3.314-4.161 3.314-6.75 0-7.081-6.642-8.548-13.13-9.98-10.797-2.383-21.349-4.713-21.349-19.838 0-5.644 2.593-10.709 6.785-14.334 2.566-2.219 5.737-3.889 9.258-4.789v-4.628a6 6 0 1 1 12 0v4.628c3.521.9 6.692 2.57 9.258 4.789 4.192 3.625 6.785 8.69 6.785 14.334a6 6 0 1 1-12 0c0-2.018-.999-3.891-2.613-5.287-1.848-1.598-4.471-2.587-7.43-2.587s-5.582.989-7.43 2.587c-1.614 1.396-2.613 3.269-2.613 5.287 0 5.533 5.895 6.834 11.926 8.166 11.143 2.46 22.552 4.979 22.552 21.652 0 6.215-2.861 11.797-7.485 15.797-3.008 2.601-6.769 4.522-10.95 5.475z" opacity="1" data-original="#faa845"></path>
</g>
</svg>