<svg xmlns="http://www.w3.org/2000/svg" xmlns:xlink="http://www.w3.org/1999/xlink" class="h-8 w-8 md:h-12 md:w-12" width="512" height="512" x="0" y="0" viewBox="0 0 512 512" style="enable-background:new 0 0 512 512" xml:space="preserve">
<g>
<path fill="#CFE8FF" fill-rule="evenodd" d="M100.008 11h252.241l54.724 54.724v345.044H100.008z" opacity="1" data-original="#cfe8ff"></path>
<path fill="#B6DBFF" fill-rule="evenodd" d="m395.126 53.876 11.847 11.848v345.044h-11.847z" opacity="1" data-original="#b6dbff"></path>
<path fill="#2DD62D" d="M11.028 344.188h316v156.784h-316z" opacity="1" data-original="#2dd62d"></path>
<path fill="#29B933" fill-rule="evenodd" d="M291.283 360.602c-1.615 11.739 6.083 19.599 14 19.599v26.082H32.772v-26.082c7.917 0 15.616-7.86 14-19.599h244.512z" opacity="1" data-original="#29b933"></path>
<path fill="#96FF96" fill-rule="evenodd" d="M52.37 365.932h233.315c0 10.824 8.775 19.599 19.599 19.599v74.099c-10.824 0-19.599 8.775-19.599 19.599H52.37c0-10.824-8.775-19.599-19.599-19.599v-74.099c10.824 0 19.599-8.775 19.599-19.599z" opacity="1" data-original="#96ff96"></path>
<circle cx="169.028" cy="422.58" r="56.459" fill="#29B933" transform="rotate(-79.75 169.175 422.671)" opacity="1" data-original="#29b933">
</circle>
<path fill="#2DD62D" fill-rule="evenodd" d="M169.028 366.122c30.024 0 54.57 23.437 56.351 53.014-1.781 29.577-26.327 53.014-56.351 53.014s-54.57-23.437-56.351-53.014c1.781-29.576 26.327-53.014 56.351-53.014z" opacity="1" data-original="#2dd62d"></path>
<path fill="#29B933" d="M319.707 344.188h7.321v156.784h-7.321z" opacity="1" data-original="#29b933"></path>
<path fill="#4EB1FC" fill-rule="evenodd" d="m352.249 11 54.724 54.724h-54.724z" opacity="1" data-original="#4eb1fc"></path>
<path fill="#009914" fill-rule="evenodd" d="M66.705 428.58a6 6 0 1 1 0-12H78.57a6 6 0 1 1 0 12zm192.782 0a6 6 0 1 1 0-12h11.865a6 6 0 1 1 0 12z" opacity="1" data-original="#009914"></path>
<path fill="#4EB1FC" d="M145.54 174.51h36.387v136.762H145.54z" opacity="1" data-original="#4eb1fc"></path>
<path fill="#FDC72E" d="M81.815 238.528h36.386v72.743H81.815z" opacity="1" data-original="#fdc72e"></path>
<path fill="#2DD62D" d="M209.265 185.028h36.386v126.243h-36.386z" opacity="1" data-original="#2dd62d"></path>
<path fill="#F89B00" d="M272.99 135.794h36.387v175.477H272.99z" opacity="1" data-original="#f89b00"></path>
<path fill="#FB545C" d="M18.089 270.18h36.386v41.091H18.089z" opacity="1" data-original="#fb545c"></path>
<path fill="#7986BF" fill-rule="evenodd" d="M289.686 76.407a5.993 5.993 0 0 1-1.735-11.859l21.269-3.114c4.046-.592 7.44 2.945 6.779 6.914l-3.097 21.151a5.992 5.992 0 1 1-11.859-1.735l.493-3.367-74.178 74.179c-1.719 1.718-4.327 2.208-6.562 1.266l-59.135-25.061L43.338 253.107a6 6 0 0 1-8.484-8.484l121.167-121.167a6.002 6.002 0 0 1 7.067-1.052l58.63 24.847 71.336-71.337z" opacity="1" data-original="#7986bf"></path>
<path fill="#E68207" d="M298.584 135.794h10.793v175.477h-10.793z" opacity="1" data-original="#e68207"></path>
<path fill="#29B933" d="M234.858 185.028h10.793v126.243h-10.793z" opacity="1" data-original="#29b933"></path>
<path fill="#2A92FA" d="M171.133 174.51h10.793v136.762h-10.793z" opacity="1" data-original="#2a92fa"></path>
<path fill="#F9AC00" d="M107.407 238.528H118.2v72.743h-10.793z" opacity="1" data-original="#f9ac00"></path>
<path fill="#E8333C" d="M43.681 270.18h10.793v41.091H43.681z" opacity="1" data-original="#e8333c"></path>
<path fill="#009914" fill-rule="evenodd" d="M169.023 467.204c-3.325 0-5.975-2.689-5.975-5.999v-4.663c-10.758-1.935-18.582-8.182-20.624-16.852-.723-3.229 1.253-6.457 4.481-7.209 3.229-.752 6.457 1.258 7.228 4.481.854 3.684 4.527 6.068 8.915 7.272v-16.615c-4.401-1.172-8.865-2.724-12.384-5.45-4.433-3.445-7.084-8.11-7.421-13.145-.386-4.915 1.445-9.715 5.06-13.517 3.738-3.872 9.1-6.105 14.745-7.014v-4.536c0-3.315 2.65-5.999 5.975-5.999s6.023 2.684 6.023 5.999v4.495c1.402.213 2.76.501 4.048.858 8.818 2.448 14.793 7.97 16.432 15.15.723 3.229-1.301 6.447-4.53 7.18-3.228.732-6.457-1.287-7.18-4.52-.867-3.893-5.831-5.667-7.951-6.25a22.313 22.313 0 0 0-.819-.21v17.561c.291.078.581.157.867.237 8.963 2.549 14.986 6.52 17.877 11.806 2.168 3.865 2.554 8.351 1.204 12.981-2.407 8.208-10.996 12.499-19.949 13.622v4.337c0 3.311-2.699 5.999-6.023 5.999zm-5.975-52.097v-14.412c-2.549.644-4.711 1.707-6.072 3.125-1.253 1.315-1.879 2.853-1.783 4.332.145 1.614 1.108 3.185 2.843 4.534 1.246.972 3.017 1.754 5.012 2.421zm11.998 15.663v13.986c4.69-.854 7.865-2.886 8.432-4.878.578-2.019.193-3.099-.193-3.807-1.061-1.934-4.022-3.816-8.24-5.301z" opacity="1" data-original="#009914"></path>
<g fill-rule="evenodd">
<path fill="#D19458" d="M419.61 306.735c35.613 14.042 65.942 64.116 76.934 106.747 18.438 71.513-22.482 86.347-89.571 87.518-67.089-1.171-108.008-16.005-89.571-87.518 10.992-42.632 41.321-92.705 76.934-106.747h25.275z" opacity="1" data-original="#d19458"></path>
<path fill="#E6B17C" d="M396.06 500.669c-60.528-2.663-96.073-19.641-78.659-87.187 10.992-42.632 41.321-92.705 76.934-106.747h3.45c35.613 14.042 65.942 64.116 76.934 106.747 17.415 67.546-18.13 84.524-78.659 87.187z" opacity="1" data-original="#e6b17c"></path>
<path fill="#D19458" d="m396.866 315.359-18.255.054c-41.298-56.561-31.565-76.701-12.383-70.734 5.67 1.764 9.207 4.771 12.193 7.23 5.347 4.403 9.609 6.455 14.173-.023 9.932-14.096 18.827-14.096 28.76 0 4.564 6.478 8.826 4.426 14.173.023 2.986-2.458 6.523-5.466 12.193-7.23 19.182-5.967 28.915 14.173-12.383 70.734l-18.255-.054c-3.813.023-6.96.034-10.107.034s-6.294-.011-10.107-.034z" opacity="1" data-original="#d19458"></path>
<path fill="#E6B17C" d="m396.866 315.358-.806.003-.806-.003-1.746.01-8.361.025c-2.12 0-4.239-.005-6.562-.016-41.268-56.534-31.536-76.665-12.358-70.699 5.67 1.764 9.207 4.771 12.193 7.229 5.347 4.404 9.609 6.455 14.173-.022 9.932-14.096 18.827-14.096 28.76 0 4.564 6.477 8.826 4.426 14.173.022 1.478-1.217 3.091-2.568 5.03-3.836 5.228 8.574.196 30.022-27.02 67.305-2.323.011-4.443.016-6.562.016l-8.361-.025-1.746-.01z" opacity="1" data-original="#e6b17c"></path>
</g>
<rect width="94.414" height="20.962" x="359.766" y="304.912" fill="#96602A" rx="10.481" opacity="1" data-original="#96602a"></rect>
<path fill="#AB733A" fill-rule="evenodd" d="M425.968 304.912h-55.722c-5.765 0-10.481 4.716-10.481 10.481s4.716 10.482 10.481 10.482h55.722c5.765 0 10.481-4.716 10.481-10.481s-4.715-10.482-10.481-10.482z" opacity="1" data-original="#ab733a"></path>
<path fill="#96602A" fill-rule="evenodd" d="M400.992 459.563c-15.098-2.113-26.139-10.385-28.864-22.051-.723-3.228 1.253-6.452 4.482-7.209 3.228-.752 6.457 1.258 7.228 4.486 1.601 6.948 9.02 11.041 17.155 12.589v-28.029c-6.485-1.635-13.167-3.748-18.166-7.646-5.686-4.39-9.059-10.302-9.541-16.649-.434-6.187 1.879-12.244 6.505-17.058 5.264-5.486 13.083-8.444 21.202-9.403v-8.378c0-3.315 2.65-5.999 5.975-5.999s6.023 2.684 6.023 5.999v8.358c2.571.29 5.055.766 7.373 1.409 11.468 3.175 19.227 10.244 21.298 19.395.723 3.228-1.301 6.447-4.53 7.18-3.229.737-6.457-1.291-7.18-4.52-1.542-6.688-9.444-9.565-12.818-10.495a36.428 36.428 0 0 0-4.144-.887v29.25c.998.253 1.984.514 2.939.785 11.854 3.378 19.805 8.544 23.564 15.352 2.698 4.896 3.18 10.384 1.494 16.306-3.232 11.044-15.596 16.524-27.996 17.559v8.192c0 3.315-2.699 5.999-6.023 5.999s-5.975-2.684-5.975-5.999v-8.538zm11.998-11.688c8.456-.886 15.116-4.351 16.432-8.888.819-2.824.723-5.088-.434-7.141-2.044-3.746-7.747-7.117-15.998-9.516zm-11.998-67.204c-5.24.841-9.822 2.785-12.577 5.638-2.217 2.328-3.325 5.122-3.132 7.874.193 2.949 1.879 5.729 4.867 8.038 2.683 2.082 6.571 3.525 10.842 4.721z" opacity="1" data-original="#96602a"></path>
</g>
</svg>