<svg xmlns="http://www.w3.org/2000/svg" class="h-8 w-8 md:h-10 md:w-10" width="52" height="50" viewBox="0 0 52 50" fill="none">
<g clip-path="url(#clip0_43_16)">
<path d="M16.4553 49.1963H0.5L27.9127 6.02585C29.4374 3.62377 31.91 2.19629 34.5447 2.19629H50.5L23.0873 45.3667C21.5626 47.7688 19.09 49.1963 16.4553 49.1963Z" fill="#FFC8BD"></path>
<path d="M18.7493 7.6665C14.601 7.6665 11.2285 11.039 11.2285 15.1873C11.2285 19.2565 14.411 22.5498 18.5593 22.6923C18.686 22.6765 18.8127 22.6765 18.9077 22.6923C18.9393 22.6923 18.9552 22.6923 18.9868 22.6923C19.0027 22.6923 19.0027 22.6923 19.0185 22.6923C23.0718 22.5498 26.2543 19.2565 26.2702 15.1873C26.2702 11.039 22.8977 7.6665 18.7493 7.6665Z" fill="#FF4624"></path>
<path d="M26.7935 26.9041C22.376 23.9591 15.1718 23.9591 10.7227 26.9041C8.71185 28.2499 7.60352 30.0707 7.60352 32.0182C7.60352 33.9657 8.71185 35.7707 10.7068 37.1007C12.9235 38.5891 15.8368 39.3332 18.7502 39.3332C21.6635 39.3332 24.5769 38.5891 26.7935 37.1007C28.7885 35.7549 29.8969 33.9499 29.8969 31.9866C29.881 30.0391 28.7885 28.2341 26.7935 26.9041Z" fill="#FF4624"></path>
<path d="M36.1518 16.1217C36.4051 19.1933 34.2201 21.885 31.196 22.2492C31.1801 22.2492 31.1801 22.2492 31.1643 22.2492H31.1168C31.0218 22.2492 30.9268 22.2492 30.8476 22.2808C29.3118 22.36 27.9026 21.8692 26.8418 20.9667C28.4726 19.51 29.4068 17.325 29.2168 14.95C29.106 13.6675 28.6626 12.4958 27.9976 11.4983C28.5993 11.1975 29.296 11.0075 30.0085 10.9442C33.1118 10.675 35.8826 12.9867 36.1518 16.1217Z" fill="#FF4624"></path>
<path d="M39.3171 30.7675C39.1904 32.3033 38.2087 33.6333 36.5621 34.5358C34.9787 35.4066 32.9837 35.8183 31.0046 35.7708C32.1446 34.7416 32.8096 33.4591 32.9362 32.0975C33.0946 30.1341 32.1604 28.25 30.2921 26.7458C29.2312 25.9066 27.9962 25.2416 26.6504 24.7508C30.1496 23.7375 34.5512 24.4183 37.2587 26.6033C38.7154 27.775 39.4596 29.2475 39.3171 30.7675Z" fill="#FF4624"></path>
</g>
<defs>
<clipPath id="clip0_43_16">
<rect width="51" height="50" fill="white" transform="translate(0.5)"></rect>
</clipPath>
</defs>
</svg>