<svg xmlns="http://www.w3.org/2000/svg" class="h-8 w-8 md:h-10 md:w-10" width="37" height="36" viewBox="0 0 37 36" fill="none">
<path d="M26.4349 6.21L26.3299 11.895C26.3149 12.675 26.8099 13.71 27.4399 14.175L31.1599 16.995C33.5449 18.795 33.1549 21 30.3049 21.9L25.4599 23.415C24.6499 23.67 23.7949 24.555 23.5849 25.38L22.4299 29.79C21.5149 33.27 19.2349 33.615 17.3449 30.555L14.7049 26.28C14.2249 25.5 13.0849 24.915 12.1849 24.96L7.17492 25.215C3.58992 25.395 2.56992 23.325 4.90992 20.595L7.87992 17.145C8.43492 16.5 8.68992 15.3 8.43492 14.49L6.90492 9.63C6.01992 6.78 7.60992 5.205 10.4449 6.135L14.8699 7.59C15.6199 7.83 16.7449 7.66501 17.3749 7.20001L21.9949 3.87C24.4999 2.085 26.4949 3.135 26.4349 6.21Z" fill="#FF4624"></path>
<path d="M32.66 30.705L28.115 26.16C27.68 25.725 26.96 25.725 26.525 26.16C26.09 26.595 26.09 27.315 26.525 27.75L31.07 32.295C31.295 32.52 31.58 32.625 31.865 32.625C32.15 32.625 32.435 32.52 32.66 32.295C33.095 31.86 33.095 31.14 32.66 30.705Z" fill="#FF4624"></path>
</svg>