<svg xmlns="http://www.w3.org/2000/svg" class="h-8 w-8 md:h-10 md:w-10" width="54" height="47" viewBox="0 0 54 47" fill="none">
<g clip-path="url(#clip0_43_2)">
<path d="M16.4553 45.1963H0.5L27.9127 5.69993C29.4374 3.50228 31.91 2.19629 34.5447 2.19629H50.5L23.0873 41.6926C21.5626 43.8903 19.09 45.1963 16.4553 45.1963Z" fill="#FFC8BD"></path>
<path d="M18.6132 37.6074C18.5657 37.6074 18.5024 37.6391 18.4549 37.6391C15.3832 36.1191 12.8815 33.6016 11.3457 30.5299C11.3457 30.4824 11.3774 30.4191 11.3774 30.3716C13.309 30.9416 15.304 31.3691 17.2832 31.7016C17.6315 33.6966 18.0432 35.6757 18.6132 37.6074Z" fill="#FF4624"></path>
<path d="M39.6555 30.5457C38.088 33.6966 35.4755 36.2457 32.293 37.7816C32.8946 35.7707 33.4013 33.7441 33.7338 31.7016C35.7288 31.3691 37.6921 30.9416 39.6238 30.3716C39.608 30.4349 39.6555 30.4982 39.6555 30.5457Z" fill="#FF4624"></path>
<path d="M39.7821 16.7074C37.7871 16.1058 35.7763 15.6149 33.7338 15.2666C33.4013 13.2241 32.9105 11.1974 32.293 9.21826C35.5705 10.7858 38.2146 13.4299 39.7821 16.7074Z" fill="#FF4624"></path>
<path d="M18.6129 9.39271C18.0429 11.3244 17.6312 13.2877 17.2987 15.2827C15.2562 15.5994 13.2295 16.106 11.2188 16.7077C12.7545 13.5252 15.3037 10.9127 18.4545 9.34521C18.502 9.34521 18.5654 9.39271 18.6129 9.39271Z" fill="#FF4624"></path>
<path d="M31.0263 14.934C27.3529 14.5223 23.6479 14.5223 19.9746 14.934C20.3704 12.7648 20.8771 10.5957 21.5896 8.50567C21.6213 8.379 21.6054 8.284 21.6213 8.15734C22.8721 7.8565 24.1546 7.6665 25.5004 7.6665C26.8304 7.6665 28.1288 7.8565 29.3638 8.15734C29.3796 8.284 29.3796 8.379 29.4113 8.50567C30.1238 10.6115 30.6304 12.7648 31.0263 14.934Z" fill="#FF4624"></path>
<path d="M16.9335 29.0258C14.7485 28.63 12.5952 28.1233 10.5052 27.4108C10.3785 27.3791 10.2835 27.395 10.1568 27.3791C9.85602 26.1283 9.66602 24.8458 9.66602 23.5C9.66602 22.17 9.85602 20.8716 10.1568 19.6366C10.2835 19.6208 10.3785 19.6208 10.5052 19.5891C12.611 18.8925 14.7485 18.37 16.9335 17.9741C16.5377 21.6475 16.5377 25.3525 16.9335 29.0258Z" fill="#FF4624"></path>
<path d="M41.3339 23.5C41.3339 24.8458 41.1439 26.1283 40.8431 27.3791C40.7164 27.395 40.6214 27.3791 40.4947 27.4108C38.3889 28.1075 36.2356 28.63 34.0664 29.0258C34.4781 25.3525 34.4781 21.6475 34.0664 17.9741C36.2356 18.37 38.4047 18.8766 40.4947 19.5891C40.6214 19.6208 40.7164 19.6366 40.8431 19.6366C41.1439 20.8875 41.3339 22.17 41.3339 23.5Z" fill="#FF4624"></path>
<path d="M31.0263 32.0659C30.6304 34.2509 30.1238 36.4042 29.4113 38.4942C29.3796 38.6209 29.3796 38.7159 29.3638 38.8426C28.1288 39.1434 26.8304 39.3334 25.5004 39.3334C24.1546 39.3334 22.8721 39.1434 21.6213 38.8426C21.6054 38.7159 21.6213 38.6209 21.5896 38.4942C20.8929 36.3884 20.3704 34.2509 19.9746 32.0659C21.8113 32.2718 23.6479 32.4143 25.5004 32.4143C27.3529 32.4143 29.2054 32.2718 31.0263 32.0659Z" fill="#FF4624"></path>
<path d="M31.458 29.4584C27.4979 29.9581 23.5008 29.9581 19.5407 29.4584C19.0411 25.4984 19.0411 21.5013 19.5407 17.5412C23.5008 17.0416 27.4979 17.0416 31.458 17.5412C31.9576 21.5013 31.9576 25.4984 31.458 29.4584Z" fill="#FF4624"></path>
</g>
<defs>
<clipPath id="clip0_43_2">
<rect width="53" height="47" fill="white" transform="translate(0.5)"></rect>
</clipPath>
</defs>
</svg>