<svg xmlns="http://www.w3.org/2000/svg" xmlns:xlink="http://www.w3.org/1999/xlink" class="h-8 w-8 md:h-10 md:w-10" width="512" height="512" x="0" y="0" viewBox="0 0 64 64" style="enable-background:new 0 0 512 512" xml:space="preserve">
<g transform="matrix(1.1499999999999995,0,0,1.1499999999999995,-4.800000143051122,-4.800000071525552)">
<path d="M48 12.072H35.36V6.147a1 1 0 0 0-1-1H16a1 1 0 0 0-1 1v17.69a.996.996 0 0 0 1 1 .995.995 0 0 0 .536-.156l6.935-4.404h5.17V26.2a1 1 0 0 0 1 1H40.53l6.935 4.408A.997.997 0 0 0 49 30.764V13.072a1 1 0 0 0-1-1zm-19.359 1v5.205H23.18a1 1 0 0 0-.536.156L17 22.017V7.147h16.36v4.925h-3.72a1 1 0 0 0-.999 1zM47 28.943l-5.644-3.587a.997.997 0 0 0-.536-.156H30.64V14.072H47z" fill="#FF4624" opacity="1" data-original="#000000"></path>
<path d="m26.175 9.644-3.498 3.826-1.277-.933a1 1 0 1 0-1.179 1.614l2 1.462a1 1 0 0 0 1.328-.132l4.103-4.487a1.001 1.001 0 0 0-1.477-1.35zM35.543 22.637a.997.997 0 0 0 1.414 0l1.863-1.863 1.863 1.863a.997.997 0 0 0 1.414 0 .999.999 0 0 0 0-1.414l-1.863-1.863 1.863-1.863a.999.999 0 1 0-1.414-1.414l-1.863 1.863-1.863-1.863a.999.999 0 1 0-1.414 1.414l1.863 1.863-1.863 1.863a.999.999 0 0 0 0 1.414zM37.304 42.18h-.162a7.63 7.63 0 0 0 2.514-5.656c0-4.222-3.435-7.656-7.656-7.656s-7.656 3.435-7.656 7.656c0 2.242.974 4.255 2.514 5.656h-.162c-4.933 0-8.946 4.013-8.946 8.946v6.727a1 1 0 0 0 1 1h26.5a1 1 0 0 0 1-1v-6.727c0-4.933-4.014-8.946-8.946-8.946zm-10.96-5.657c0-3.119 2.537-5.656 5.656-5.656s5.656 2.538 5.656 5.656S35.119 42.18 32 42.18s-5.656-2.538-5.656-5.657zm17.906 20.33h-4.333v-5.844a1 1 0 1 0-2 0v5.844H26.083v-5.844a1 1 0 1 0-2 0v5.844H19.75v-5.727a6.954 6.954 0 0 1 6.946-6.946h10.607a6.954 6.954 0 0 1 6.946 6.946v5.727z" fill="#FF4624" opacity="1" data-original="#000000"></path>
</g>
</svg>