<svg class="h-8 w-8 md:h-10 md:w-10" xmlns="http://www.w3.org/2000/svg" version="1.1" xmlns:xlink="http://www.w3.org/1999/xlink" width="512" height="512" x="0" y="0" viewBox="0 0 64 64" style="enable-background:new 0 0 512 512" xml:space="preserve">
<g>
<path d="M19 41h-4a1 1 0 0 0-1 1v2h-3a1 1 0 0 0-1 1v1H7a1 1 0 0 0-1 1v6a1 1 0 0 0 1 1h12a1 1 0 0 0 1-1V42a1 1 0 0 0-1-1zm-7 6v-1h2v6h-2zM38 27h-3a1 1 0 1 0 0 2h.586L33 31.586l-2.293-2.293a.999.999 0 0 0-1.332-.074l-5 4a1 1 0 1 0 1.25 1.562l4.301-3.441 2.367 2.367a.999.999 0 0 0 1.414 0L37 30.414V31a1 1 0 1 0 2 0v-3a1 1 0 0 0-1-1zM7 36v4a1 1 0 0 0 1 1h4a1 1 0 0 0 1-1v-4h1a.999.999 0 0 0 .781-1.625l-4-5c-.381-.475-1.182-.475-1.562 0l-4 5A1.001 1.001 0 0 0 6 36zM26 48c-1.654 0-3 1.346-3 3s1.346 3 3 3 3-1.346 3-3-1.346-3-3-3z" fill="#FF4624" opacity="1" data-original="#000000"></path>
<circle cx="32" cy="53" r="1" fill="#FF4624" opacity="1" data-original="#000000"></circle>
<circle cx="36" cy="53" r="1" fill="#FF4624" opacity="1" data-original="#000000"></circle>
<path d="m61.121 53.757-8.485-8.486a2.991 2.991 0 0 0-2.886-.764l-4.521-4.521A15.904 15.904 0 0 0 48 31c0-5.039-2.347-9.535-6-12.47V3a1 1 0 0 0-1-1H3a1 1 0 0 0-1 1v54a1 1 0 0 0 1 1h38a1 1 0 0 0 1-1V45.242l3.505 3.505a2.98 2.98 0 0 0-.112.767c0 .801.312 1.555.879 2.121l8.484 8.485a2.98 2.98 0 0 0 2.123.88c.801 0 1.555-.312 2.121-.879L61.121 58a3.003 3.003 0 0 0 0-4.243zM40 56H4V4h36v13.165A15.883 15.883 0 0 0 32 15c-1.154 0-2.277.129-3.362.362-.257-1.009-.515-1.616-.743-2.014l1.005-1.005a.999.999 0 0 0 0-1.414L26.072 8.1a.997.997 0 0 0-1.414 0L23.62 9.138A9.951 9.951 0 0 0 22 8.466V7a1 1 0 0 0-1-1h-4a1 1 0 0 0-1 1v1.466c-.558.176-1.1.4-1.619.672L13.343 8.1a1.03 1.03 0 0 0-1.414 0l-2.828 2.829a.999.999 0 0 0 0 1.414l1.038 1.038A9.858 9.858 0 0 0 9.466 15H8a1 1 0 0 0-1 1v4a1 1 0 0 0 1 1h1.466c.176.558.4 1.099.673 1.619l-1.038 1.038a.999.999 0 0 0 0 1.414l2.828 2.829a.997.997 0 0 0 1.414 0l1.038-1.038c.631.33 1.299.573 1.985.761A15.99 15.99 0 0 0 16 31c0 8.822 7.178 16 16 16 2.916 0 5.643-.797 8-2.165zM25.767 13.748c.055.086.111.169.173.256.214.308.477.697.78 1.91-.981.344-1.916.78-2.799 1.299C23.54 14.831 21.487 13 19 13c-2.757 0-5 2.243-5 5 0 2.487 1.831 4.54 4.213 4.92a15.964 15.964 0 0 0-1.292 2.778 7.918 7.918 0 0 1-2.174-.932.999.999 0 0 0-1.24.139l-.872.872-1.414-1.415.872-.872a1 1 0 0 0 .139-1.24 7.964 7.964 0 0 1-1.027-2.474A1 1 0 0 0 10.23 19H9v-2h1.23a1 1 0 0 0 .975-.778c.2-.876.546-1.709 1.027-2.474a1 1 0 0 0-.139-1.24l-.872-.872 1.414-1.415.872.872a1 1 0 0 0 1.24.139 7.936 7.936 0 0 1 2.474-1.027A1 1 0 0 0 18 9.23V8h2v1.23a1 1 0 0 0 .778.975 7.936 7.936 0 0 1 2.474 1.027 1 1 0 0 0 1.24-.139l.872-.872 1.414 1.415-.872.872c-.33.33-.387.845-.139 1.24zM42 31c0 5.514-4.486 10-10 10s-10-4.486-10-10 4.486-10 10-10 10 4.486 10 10zm4.626 16.04-4.058-4.058c.501-.442.972-.914 1.414-1.414l4.058 4.058z" fill="#FF4624" opacity="1" data-original="#000000"></path>
</g>
</svg>