<svg class="h-8 w-8 md:h-10 md:w-10" xmlns="http://www.w3.org/2000/svg" version="1.1" xmlns:xlink="http://www.w3.org/1999/xlink" width="512" height="512" x="0" y="0" viewBox="0 0 512 512" style="enable-background:new 0 0 512 512" xml:space="preserve">
<g>
<path d="M364.567 193.736c-38.074 0-72.747 14.816-98.575 38.977H202.54v-78.788a84.384 84.384 0 0 0 27.207 4.517c14.578 0 29.12-3.797 42.21-11.355 24.956-14.396 40.696-40.173 42.155-68.996l.007-.112.011-.169c.003-.063-.002-.124 0-.186a8.807 8.807 0 0 0-.001-.514c-.004-.113-.014-.225-.023-.337a8.454 8.454 0 0 0-.044-.421c-.018-.135-.042-.268-.066-.401a7.573 7.573 0 0 0-.282-1.079 7.878 7.878 0 0 0-.286-.726 8.195 8.195 0 0 0-.988-1.633 8.004 8.004 0 0 0-.821-.901 8.2 8.2 0 0 0-.575-.492 8.252 8.252 0 0 0-.336-.245 7.147 7.147 0 0 0-.286-.193 7.751 7.751 0 0 0-.433-.252c-.057-.032-.11-.068-.169-.099-.053-.027-.107-.052-.16-.08l-.087-.043c-25.643-13.157-55.84-12.416-80.839 2.002-10.485 6.055-19.335 14.12-26.191 23.568V37.406a7.994 7.994 0 1 0-15.988 0v58.333c-6.85-9.43-15.691-17.482-26.166-23.531-24.996-14.416-55.194-15.157-80.837-2l-.087.043c-.053.027-.107.052-.16.08-.059.03-.112.067-.169.099a8.425 8.425 0 0 0-.433.252 7.147 7.147 0 0 0-.286.193 7.397 7.397 0 0 0-.911.737c-.11.103-.216.21-.319.319a7.801 7.801 0 0 0-1.306 1.837 8.195 8.195 0 0 0-.312.682 8.848 8.848 0 0 0-.157.421c-.034.101-.065.203-.096.305a8.046 8.046 0 0 0-.115.431 8.022 8.022 0 0 0-.071.343 7.614 7.614 0 0 0-.11.823c-.009.111-.019.222-.023.335a8.005 8.005 0 0 0-.002.514c.001.062-.003.124 0 .187.002.057.008.113.011.17l.007.11c1.458 28.824 17.199 54.602 42.151 68.994 13.098 7.563 27.635 11.36 42.211 11.36a84.283 84.283 0 0 0 27.183-4.515v78.783h-68.314c-20.038 0-36.341 16.29-36.341 36.312a36.086 36.086 0 0 0 6.24 20.324H71.699c-20.022 0-36.312 16.29-36.312 36.312a36.157 36.157 0 0 0 6.244 20.352h-2.304c-20.022 0-36.312 16.29-36.312 36.312s16.29 36.312 36.312 36.312h2.295a36.1 36.1 0 0 0-6.236 20.324c0 20.022 16.29 36.312 36.312 36.312h247.487c14.28 4.739 29.538 7.313 45.388 7.313 79.637 0 144.426-64.789 144.426-144.426S444.21 193.732 364.573 193.732zM236.722 86.057c18.804-10.847 41.238-12.142 60.984-3.758-2.629 21.329-14.965 40.11-33.742 50.94-18.757 10.83-41.189 12.124-60.979 3.747 2.63-21.313 14.966-40.091 33.737-50.93zm-111.572 47.18c-18.773-10.828-31.109-29.608-33.738-50.937 19.747-8.386 42.178-7.089 60.982 3.756 18.784 10.846 31.112 29.624 33.717 50.932-19.772 8.381-42.195 7.089-60.961-3.75zM97.884 269.025c0-11.207 9.13-20.324 20.353-20.324h133.028a144.337 144.337 0 0 0-22.626 40.648H118.237c-11.223 0-20.353-9.117-20.353-20.324zm-46.517 56.637c0-11.207 9.117-20.324 20.324-20.324h152.214a144.332 144.332 0 0 0-3.549 40.676H71.692c-11.207 0-20.324-9.13-20.324-20.352zm-32.372 56.664c0-11.207 9.117-20.324 20.324-20.324h182.8a143.294 143.294 0 0 0 13.245 40.648H39.32c-11.207 0-20.324-9.117-20.324-20.324zm52.696 76.96c-11.207 0-20.324-9.117-20.324-20.323s9.117-20.324 20.324-20.324h173.005a145.593 145.593 0 0 0 41.297 40.647H71.692zm292.875 7.313c-70.821 0-128.438-57.616-128.438-128.438s57.616-128.438 128.438-128.438 128.438 57.616 128.438 128.438-57.616 128.438-128.438 128.438zm40.479-95.896c0 19.605-13.992 36.002-32.514 39.736v11.458a7.994 7.994 0 1 1-15.988 0v-11.431c-17.382-3.409-30.768-17.789-32.423-36.094a7.995 7.995 0 0 1 7.241-8.681 7.98 7.98 0 0 1 8.681 7.241c1.15 12.725 11.669 22.319 24.467 22.319 13.536 0 24.548-11.012 24.548-24.548 0-11.436-10.518-17.169-27.842-25.252-17.402-8.121-37.128-17.325-37.128-39.831 0-19.619 13.992-36.027 32.513-39.763v-11.431a7.994 7.994 0 1 1 15.988 0v11.404c17.379 3.409 30.765 17.789 32.424 36.092a7.995 7.995 0 0 1-15.922 1.444c-1.135-12.517-11.882-22.321-24.468-22.321-13.535 0-24.547 11.024-24.547 24.576 0 11.494 10.54 17.242 27.9 25.343 17.375 8.107 37.069 17.297 37.069 39.74z" fill="#FF4624" opacity="1" data-original="#000000"></path>
</g>
</svg>