<svg xmlns="http://www.w3.org/2000/svg" xmlns:xlink="http://www.w3.org/1999/xlink" class="h-8 w-8 md:h-12 md:w-12" width="512" height="512" x="0" y="0" viewBox="0 0 512 512" style="enable-background:new 0 0 512 512" xml:space="preserve">
<g>
<path fill="#80D6FB" d="M10 429.05V502h380v-72.95c0-37.27-25.74-69.6-62.06-77.96l-41.81-9.62-24.83-5.72L245 332h-90l-16.3 3.75-24.83 5.72-41.81 9.62C35.74 359.45 10 391.78 10 429.05z" opacity="1" data-original="#80d6fb"></path>
<g fill="#46BEE8">
<path d="M318 462h20v40h-20zM62 462h20v40H62z" fill="#46BEE8" opacity="1" data-original="#46bee8"></path>
</g>
<path fill="#EDEFF1" d="M155 332h90l16.3 3.75L200 502l-61.3-166.25z" opacity="1" data-original="#edeff1"></path>
<path fill="#D3D3D3" d="M155 332h90l16.3 3.75-31.567 85.613L200 387l-29.733 34.363L138.7 335.75z" opacity="1" data-original="#d3d3d3"></path>
<path fill="#FFD3B3" d="M155 332v-48h90v48c0 24.853-20.147 45-45 45s-45-20.147-45-45z" opacity="1" data-original="#ffd3b3"></path>
<path fill="#FCB98B" d="M200 315.87a114.468 114.468 0 0 1-45-9.196V284h90v22.674a114.468 114.468 0 0 1-45 9.196z" opacity="1" data-original="#fcb98b"></path>
<path fill="#6E83B7" d="M190 414.349h20l8.567 37.296L200 502l-18.567-50.355z" opacity="1" data-original="#6e83b7"></path>
<path fill="#466089" d="M190 409.349h20v5h-20z" opacity="1" data-original="#466089">
</path>
<path fill="#6E83B7" d="m200 377 15.444 17.849-5.444 14.5h-20l-5.444-14.5z" opacity="1" data-original="#6e83b7"></path>
<g fill="#EDEFF1">
<path d="m245 332-45 45 32.316 37.349L261.3 335.75zM138.7 335.75l28.984 78.599L200 377l-45-45z" fill="#EDEFF1" opacity="1" data-original="#edeff1"></path>
</g>
<g fill="#FFD3B3">
<path d="M95 146h12v52H95c-7.732 0-14-6.268-14-14v-24c0-7.732 6.268-14 14-14zM305 146h-12v52h12c7.732 0 14-6.268 14-14v-24c0-7.732-6.268-14-14-14z" fill="#FFD3B3" opacity="1" data-original="#ffd3b3"></path>
</g>
<path fill="#FFD3B3" d="M107 105v101.5c0 51.45 41.64 89.5 93 89.5s93-38.05 93-89.5V105z" opacity="1" data-original="#ffd3b3"></path>
<path fill="#6E83B7" d="M200 10c57.75 0 105 47.25 105 105v31h-12v52l-15-53c-56.888-1.632-104.826-10.472-129-39 0 0-8.715 27.349-28 39l-14 53v-52H95v-31c0-57.75 47.25-105 105-105z" opacity="1" data-original="#6e83b7"></path>
<circle cx="410" cy="196" r="60" fill="#FFE352" opacity="1" data-original="#ffe352">
</circle>
<circle cx="410" cy="196" r="54" fill="#FFB236" opacity="1" data-original="#ffb236">
</circle>
<circle cx="410" cy="196" r="48" fill="#FFE352" opacity="1" data-original="#ffe352">
</circle>
<path fill="#6E83B7" d="M410 190c-4.411 0-8-3.589-8-8s3.589-8 8-8 8 3.589 8 8h12c0-8.938-5.895-16.523-14-19.078V155.2h-12v7.722c-8.105 2.555-14 10.14-14 19.078 0 11.028 8.972 20 20 20 4.411 0 8 3.589 8 8s-3.589 8-8 8-8-3.589-8-8h-12c0 8.938 5.895 16.523 14 19.078v7.722h12v-7.722c8.105-2.555 14-10.14 14-19.078 0-11.028-8.972-20-20-20zM494.5 502h-169a7.5 7.5 0 0 1-7.5-7.5v-231a7.5 7.5 0 0 1 7.5-7.5h169a7.5 7.5 0 0 1 7.5 7.5v231a7.5 7.5 0 0 1-7.5 7.5z" opacity="1" data-original="#6e83b7"></path>
<path fill="#466089" d="M318 315.5h184v5H318z" opacity="1" data-original="#466089">
</path>
<path fill="#80D6FB" d="M485 271v32H335v-32z" opacity="1" data-original="#80d6fb">
</path>
<path fill="#46BEE8" d="M485 298v5H335v-5z" opacity="1" data-original="#46bee8"></path>
<g fill="#EDEFF1">
<path d="M402 405h-64a3 3 0 0 1-3-3v-64a3 3 0 0 1 3-3h64a3 3 0 0 1 3 3v64a3 3 0 0 1-3 3zM482 405h-64a3 3 0 0 1-3-3v-64a3 3 0 0 1 3-3h64a3 3 0 0 1 3 3v64a3 3 0 0 1-3 3zM402 485h-64a3 3 0 0 1-3-3v-64a3 3 0 0 1 3-3h64a3 3 0 0 1 3 3v64a3 3 0 0 1-3 3zM482 485h-64a3 3 0 0 1-3-3v-64a3 3 0 0 1 3-3h64a3 3 0 0 1 3 3v64a3 3 0 0 1-3 3z" fill="#EDEFF1" opacity="1" data-original="#edeff1"></path>
</g>
<g fill="#6E83B7">
<path d="M391.5 365H375v-16.5h-10V365h-16.5v10H365v16.5h10V375h16.5zM389.285 437.786l-7.07-7.072L370 442.929l-12.215-12.215-7.07 7.072L362.929 450l-12.214 12.214 7.07 7.072L370 457.071l12.215 12.215 7.07-7.072L377.071 450zM428.5 365h43v10h-43z" fill="#6E83B7" opacity="1" data-original="#6e83b7"></path>
<circle cx="450" cy="433.191" r="5.864" fill="#6E83B7" opacity="1" data-original="#6e83b7"></circle>
<circle cx="450" cy="466.809" r="5.864" fill="#6E83B7" opacity="1" data-original="#6e83b7"></circle>
<path d="M428.5 445h43v10h-43z" fill="#6E83B7" opacity="1" data-original="#6e83b7">
</path>
</g>
</g>
</svg>