<svg xmlns="http://www.w3.org/2000/svg" xmlns:xlink="http://www.w3.org/1999/xlink" class="h-8 w-8 md:h-12 md:w-12" width="512" height="512" x="0" y="0" viewBox="0 0 512 512" style="enable-background:new 0 0 512 512" xml:space="preserve">
<g>
<path d="M472 480V32c0-17.672-14.328-32-32-32H72C54.328 0 40 14.328 40 32v448c0 17.672 14.328 32 32 32h368c17.672 0 32-14.328 32-32z" fill="#35495C" data-original="#35495c"></path>
<path d="M336 360h96c4.416 0 8 3.584 8 8v96c0 4.416-3.584 8-8 8h-96c-4.416 0-8-3.584-8-8v-96c0-4.416 3.584-8 8-8z" fill="#B0C4D9" data-original="#b0c4d9"></path>
<path d="M80 40h352c4.416 0 8 3.584 8 8v144c0 4.416-3.584 8-8 8H80c-4.416 0-8-3.584-8-8V48c0-4.416 3.584-8 8-8z" fill="#89C763" data-original="#89c763"></path>
<path d="M80 360h96c4.416 0 8 3.584 8 8v96c0 4.416-3.584 8-8 8H80c-4.416 0-8-3.584-8-8v-96c0-4.416 3.584-8 8-8zM208 360h96c4.416 0 8 3.584 8 8v96c0 4.416-3.584 8-8 8h-96c-4.416 0-8-3.584-8-8v-96c0-4.416 3.584-8 8-8z" fill="#576D7E" data-original="#576d7e"></path>
<path d="M336 232h96c4.416 0 8 3.584 8 8v96c0 4.416-3.584 8-8 8h-96c-4.416 0-8-3.584-8-8v-96c0-4.416 3.584-8 8-8z" fill="#DE333F" data-original="#de333f"></path>
<path d="M80 232h96c4.416 0 8 3.584 8 8v96c0 4.416-3.584 8-8 8H80c-4.416 0-8-3.584-8-8v-96c0-4.416 3.584-8 8-8zM208 232h96c4.416 0 8 3.584 8 8v96c0 4.416-3.584 8-8 8h-96c-4.416 0-8-3.584-8-8v-96c0-4.416 3.584-8 8-8z" fill="#576D7E" data-original="#576d7e"></path>
<path d="M152 280h-16v-16c0-4.416-3.584-8-8-8s-8 3.584-8 8v16h-16c-4.416 0-8 3.584-8 8s3.584 8 8 8h16v16c0 4.416 3.584 8 8 8s8-3.584 8-8v-16h16c4.416 0 8-3.584 8-8s-3.584-8-8-8zM280 296h-48c-4.416 0-8-3.584-8-8s3.584-8 8-8h48c4.416 0 8 3.584 8 8s-3.584 8-8 8z" fill="#E2E5E7" data-original="#e2e5e7"></path>
<path d="M360 408h48c4.416 0 8-3.584 8-8s-3.584-8-8-8h-48c-4.416 0-8 3.584-8 8s3.584 8 8 8zM408 424h-48c-4.416 0-8 3.584-8 8s3.584 8 8 8h48c4.416 0 8-3.584 8-8s-3.584-8-8-8z" fill="#35495C" data-original="#35495c"></path>
<path d="M280 408h-48c-4.416 0-8 3.584-8 8s3.584 8 8 8h48c4.416 0 8-3.584 8-8s-3.584-8-8-8z" fill="#E2E5E7" data-original="#e2e5e7"></path>
<circle cx="256" cy="392" r="8" fill="#E2E5E7" data-original="#e2e5e7">
</circle>
<circle cx="256" cy="440" r="8" fill="#E2E5E7" data-original="#e2e5e7">
</circle>
<path d="M384.8 328a41.032 41.032 0 0 1-28.8-11.68c-15.64-15.224-15.976-40.24-.752-55.888.248-.256.504-.504.752-.752 16.072-15.576 41.608-15.576 57.68 0a7.996 7.996 0 0 1 0 11.28c-3.064 3.184-8.128 3.272-11.312.208-.072-.072-.144-.136-.208-.208-9.632-9.4-25.008-9.4-34.64 0-9.392 9.36-9.416 24.552-.056 33.944l.056.056c9.632 9.4 25.008 9.4 34.64 0 3.064-3.184 8.128-3.272 11.312-.208.072.072.144.136.208.208 3.136 3.112 3.16 8.176.048 11.312l-.048.048A41.048 41.048 0 0 1 384.8 328z" fill="#E2E5E7" data-original="#e2e5e7"></path>
<path d="M432 40H80c-4.416 0-8 3.584-8 8v16c0-4.416 3.584-8 8-8h352c4.416 0 8 3.584 8 8V48c0-4.416-3.584-8-8-8z" fill="#3CB54A" data-original="#3cb54a"></path>
<path d="M384 176h-16c-13.256 0-24-10.744-24-24v-48c0-13.256 10.744-24 24-24h16c13.256 0 24 10.744 24 24v48c0 13.256-10.744 24-24 24zm-16-80c-4.416 0-8 3.584-8 8v48c0 4.416 3.584 8 8 8h16c4.416 0 8-3.584 8-8v-48c0-4.416-3.584-8-8-8h-16z" fill="#0E9347" data-original="#0e9347"></path>
<path d="m139.28 416 10.32-10.32c2.872-3.352 2.48-8.408-.872-11.28a7.994 7.994 0 0 0-10.408 0L128 404.72l-10.32-10.32c-3.352-2.872-8.408-2.48-11.28.872a7.994 7.994 0 0 0 0 10.408L116.72 416l-10.32 10.32c-3.352 2.872-3.744 7.928-.872 11.28s7.928 3.744 11.28.872c.312-.272.608-.56.872-.872L128 427.28l10.32 10.32c3.352 2.872 8.408 2.48 11.28-.872a7.994 7.994 0 0 0 0-10.408L139.28 416z" fill="#E2E5E7" data-original="#e2e5e7"></path>
<path d="M456 48v432c0 8.84-7.16 16-16 16H88c-8.84 0-16 7.16-16 16h368c17.672 0 32-14.328 32-32V32c-8.84 0-16 7.16-16 16z" fill="#123247" data-original="#123247"></path>
<path d="M424 384v72h-72c-8.84 0-16 7.16-16 16h96c4.416 0 8-3.584 8-8v-96c-8.84 0-16 7.16-16 16z" fill="#99B5CD" data-original="#99b5cd"></path>
<path d="M424 256v72h-72c-8.84 0-16 7.16-16 16h96c4.416 0 8-3.584 8-8v-96c-8.84 0-16 7.16-16 16z" fill="#C61C31" data-original="#c61c31"></path>
<path d="M296 256v72h-72c-8.84 0-16 7.16-16 16h96c4.416 0 8-3.584 8-8v-96c-8.84 0-16 7.16-16 16zM296 384v72h-72c-8.84 0-16 7.16-16 16h96c4.416 0 8-3.584 8-8v-96c-8.84 0-16 7.16-16 16zM168 256v72H96c-8.84 0-16 7.16-16 16h96c4.416 0 8-3.584 8-8v-96c-8.84 0-16 7.16-16 16zM168 384v72H96c-8.84 0-16 7.16-16 16h96c4.416 0 8-3.584 8-8v-96c-8.84 0-16 7.16-16 16z" fill="#3F556B" data-original="#3f556b"></path>
<path d="M72 0h368c0 8.84-7.16 16-16 16H88c-8.84 0-16-7.16-16-16z" fill="#435970" data-original="#435970"></path>
</g>
</svg>