<svg xmlns="http://www.w3.org/2000/svg" xmlns:xlink="http://www.w3.org/1999/xlink" class="h-8 w-8 md:h-12 md:w-12" width="512" height="512" x="0" y="0" viewBox="0 0 512 512" style="enable-background:new 0 0 512 512" xml:space="preserve">
<g>
<path fill="#E6E8E8" d="M498.996 352.99V27.004a4 4 0 0 0-4-4H306.702a4.003 4.003 0 0 0-2.829 1.171l-52.018 52.018a4 4 0 0 0-1.171 2.829v110.109a115.798 115.798 0 0 0-30.863 22.107c-37.549 37.549-44.015 94.589-19.391 138.835v122.923h-26.582V296.808a4 4 0 0 0-4-4h-50.225a4 4 0 0 0-4 4v176.188H89.041v-74.002a4 4 0 0 0-4-4H34.787a4 4 0 0 0-4 4v74.002h-9.783a8 8 0 0 0 0 16h332.299a8 8 0 0 0 0-16h-9.783v-70.92a115.395 115.395 0 0 0 22.494-11.509l18.871 27.375.004.005.051.075.006-.004c.153.222.321.437.519.635l61.473 61.473c11.788 11.788 30.939 11.83 42.755.117.375-.336.738-.679 1.092-1.033 4.992-4.992 7.842-11.706 8.061-19.079.254-8.515-3.048-16.845-9.058-22.855l-61.473-61.473a4.56 4.56 0 0 0-.635-.519l.004-.006-.075-.052-.004-.002-26.457-18.233h93.847a4 4 0 0 0 4-4zM285.267 472.996h-26.583v-71.641a116.347 116.347 0 0 0 26.583 7.125z" opacity="1" data-original="#e6e8e8"></path>
<path fill="#30E5A3" d="M219.798 375.699a115.94 115.94 0 0 1-19.367-25.626v122.923h58.254v-71.641a115.57 115.57 0 0 1-38.887-25.656z" opacity="1" data-original="#30e5a3"></path>
<path fill="#678D98" d="M384.259 211.238c-45.336-45.336-119.102-45.335-164.437 0-45.348 45.348-45.36 119.125-.024 164.461 39.664 39.664 101.098 44.617 146.217 14.868l18.871 27.375.004.005.052.075.006-.004c.153.222.321.437.519.635l61.473 61.473c11.788 11.788 30.939 11.83 42.755.117.375-.336.738-.679 1.091-1.033 4.992-4.992 7.842-11.706 8.061-19.079.254-8.515-3.048-16.845-9.058-22.855l-61.473-61.473a4.56 4.56 0 0 0-.635-.519l.004-.006-.075-.052-.004-.002-27.648-19.053c28.823-44.987 23.596-105.637-15.699-144.932z" opacity="1" data-original="#678d98"></path>
<path fill="#C8EFFE" d="M240.527 231.943c-33.931 33.931-33.942 89.131-.023 123.049 33.931 33.931 89.141 33.931 123.072 0 33.919-33.919 33.908-89.118-.023-123.049-33.918-33.918-89.107-33.919-123.026 0z" opacity="1" data-original="#c8effe"></path>
<path fill="#30E5A3" d="M258.684 338.206v-92.664a4 4 0 0 0-4-4h-22.442c-25.365 34.05-22.621 82.568 8.261 113.45a86.8 86.8 0 0 0 18.18 13.909v-30.696z" opacity="1" data-original="#30e5a3"></path>
<path fill="#A8D3D8" d="M384.259 375.675a116.405 116.405 0 0 1-18.244 14.891l18.875 27.38 42.721-42.721-27.652-19.056a116.244 116.244 0 0 1-15.699 19.506z" opacity="1" data-original="#a8d3d8"></path>
<path fill="#5C8089" d="M219.822 211.238a117.356 117.356 0 0 0-4.272 4.508c45.592-41.014 116.067-39.592 159.931 4.271 43.863 43.863 45.286 114.339 4.271 159.931 1.531-1.377 3.035-2.8 4.508-4.272 45.335-45.335 45.335-119.102 0-164.437-45.336-45.336-119.102-45.335-164.437 0zM427.61 375.226l-8.779 8.779c.249.165.486.357.705.576l61.473 61.473c6.01 6.01 9.312 14.34 9.058 22.855-.162 5.441-1.766 10.517-4.596 14.813a30.248 30.248 0 0 0 4.222-3.48c.375-.336.738-.679 1.091-1.033 4.992-4.992 7.842-11.706 8.061-19.079.254-8.515-3.048-16.845-9.058-22.855l-61.473-61.473a4.555 4.555 0 0 0-.705-.576z" opacity="1" data-original="#5c8089"></path>
<path fill="#9DCCCE" d="M399.958 356.17a115.98 115.98 0 0 1-7.121 9.921l25.995 17.914 8.779-8.779-27.652-19.056z" opacity="1" data-original="#9dccce"></path>
<path fill="#678D98" d="M353.303 488.996H21.004a8 8 0 0 1 0-16h332.299a8 8 0 0 1 0 16z" opacity="1" data-original="#678d98"></path>
<path fill="#C3D1D0" d="M306.702 75.365V23.004a4.003 4.003 0 0 0-2.829 1.171l-52.018 52.018a4 4 0 0 0-1.171 2.829h52.361a3.656 3.656 0 0 0 3.656-3.656z" opacity="1" data-original="#c3d1d0"></path>
<path fill="#8EBAC5" d="M448.876 262.998h-13.3a8 8 0 0 1 0-16h13.3a8 8 0 0 1 0 16zM448.876 181.082h-86.195a8 8 0 0 1 0-16h86.195a8 8 0 0 1 0 16zM448.876 222.025h-29.349a8 8 0 0 1 0-16h29.349a8 8 0 0 1 0 16zM448.876 140.11H300.804a8 8 0 0 1 0-16h148.072a8 8 0 0 1 0 16zM448.876 99.166h-86.195a8 8 0 0 1 0-16h86.195a8 8 0 0 1 0 16zM448.876 303.941h-13.3a8 8 0 0 1 0-16h13.3a8 8 0 0 1 0 16z" opacity="1" data-original="#8ebac5"></path>
<g fill="#678D98">
<path d="M98.178 68.17h-7.084a8 8 0 0 1 0-16h7.084a8 8 0 0 1 0 16zM199.64 68.17h-75.786a8 8 0 0 1 0-16h75.786a8 8 0 0 1 0 16zM199.64 96.593H90.92a8 8 0 0 1 0-16h108.72a8 8 0 0 1 0 16zM98.178 149.189h-7.084a8 8 0 0 1 0-16h7.084a8 8 0 0 1 0 16zM199.64 149.189h-75.786a8 8 0 0 1 0-16h75.786a8 8 0 0 1 0 16zM199.64 177.612H90.92a8 8 0 0 1 0-16h108.72a8 8 0 0 1 0 16z" fill="#678D98" opacity="1" data-original="#678d98"></path>
</g>
<rect width="53.908" height="53.907" x="13.004" y="47.427" fill="#F46240" rx="8" opacity="1" data-original="#f46240"></rect>
<rect width="53.908" height="53.907" x="13.004" y="128.447" fill="#30E5A3" rx="8" opacity="1" data-original="#30e5a3"></rect>
<path fill="#F46240" d="M89.041 472.996v-74.002a4 4 0 0 0-4-4H34.787a4 4 0 0 0-4 4v74.002z" opacity="1" data-original="#f46240"></path>
<path fill="#01D0FB" d="M173.848 472.996V296.808a4 4 0 0 0-4-4h-50.225a4 4 0 0 0-4 4v176.188z" opacity="1" data-original="#01d0fb"></path>
<path fill="#01C0FA" d="M169.848 292.808h-13a4 4 0 0 1 4 4v176.188h13V296.808a4 4 0 0 0-4-4z" opacity="1" data-original="#01c0fa"></path>
<path fill="#EA5334" d="M85.041 394.993h-13a4 4 0 0 1 4 4v74.002h13v-74.002a4 4 0 0 0-4-4z" opacity="1" data-original="#ea5334"></path>
<g fill="#24D18F">
<path d="M258.684 338.206v-92.664a4 4 0 0 0-4-4h-13a4 4 0 0 1 4 4v114.195a86.46 86.46 0 0 0 13 9.164v-30.696zM245.684 395.183v77.813h13v-71.641a115.395 115.395 0 0 1-13-6.172z" fill="#24D18F" opacity="1" data-original="#24d18f"></path>
</g>
<g fill="#F9D641">
<path d="M343.521 369.946v-56.57a4 4 0 0 0-4-4h-50.254a4 4 0 0 0-4 4v65.443c19.615 3.824 40.293.855 58.254-8.873zM285.267 408.479v64.516h58.254v-70.92c-18.635 7.09-38.735 9.22-58.254 6.404z" fill="#F9D641" opacity="1" data-original="#f9d641"></path>
</g>
<g fill="#DFC84A">
<path d="M330.521 406.157v66.839h13v-70.92a116.237 116.237 0 0 1-13 4.081zM330.521 362.416v13.258a86.308 86.308 0 0 0 13-5.728v-56.57a4 4 0 0 0-4-4h-13a4 4 0 0 1 4 4z" fill="#DFC84A" opacity="1" data-original="#dfc84a"></path>
</g>
</g>
</svg>