<svg xmlns="http://www.w3.org/2000/svg" class="h-8 w-8 md:h-10 md:w-10" width="52" height="48" viewBox="0 0 52 48" fill="none">
<g clip-path="url(#clip0_43_31)">
<path d="M16.4553 47.1963H0.5L27.9127 7.69993C29.4374 5.50228 31.91 4.19629 34.5447 4.19629H50.5L23.0873 43.6926C21.5626 45.8903 19.09 47.1963 16.4553 47.1963Z" fill="#FFC8BD"></path>
<path d="M38.9882 14.2693C38.339 13.921 36.9773 13.5568 35.1248 14.8552L32.7973 16.5018C32.6232 11.5777 30.4857 9.646 25.2923 9.646H15.7923C10.3773 9.646 8.27148 11.7518 8.27148 17.1668V29.8335C8.27148 33.4752 10.2507 37.3543 15.7923 37.3543H25.2923C30.4857 37.3543 32.6232 35.4227 32.7973 30.4985L35.1248 32.1452C36.1065 32.8418 36.9615 33.0635 37.6423 33.0635C38.2282 33.0635 38.6873 32.8893 38.9882 32.731C39.6373 32.3985 40.7298 31.496 40.7298 29.2318V17.7685C40.7298 15.5043 39.6373 14.6018 38.9882 14.2693ZM22.9173 22.5185C21.2865 22.5185 19.9407 21.1885 19.9407 19.5418C19.9407 17.8952 21.2865 16.5652 22.9173 16.5652C24.5482 16.5652 25.894 17.8952 25.894 19.5418C25.894 21.1885 24.5482 22.5185 22.9173 22.5185Z" fill="#FF4624"></path>
</g>
<defs>
<clipPath id="clip0_43_31">
<rect width="52" height="48" fill="white" transform="translate(0.5)"></rect>
</clipPath>
</defs>
</svg>