<svg xmlns="http://www.w3.org/2000/svg" class="h-8 w-8 md:h-10 md:w-10" width="52" height="48" viewBox="0 0 52 48" fill="none">
<g clip-path="url(#clip0_43_28)">
<path d="M16.4553 47.1963H0.5L27.9127 5.86289C29.4374 3.56303 31.91 2.19629 34.5447 2.19629H50.5L23.0873 43.5297C21.5626 45.8296 19.09 47.1963 16.4553 47.1963Z" fill="#FFC8BD"></path>
<path d="M30.1335 7.6665H16.8652C11.1018 7.6665 7.66602 11.1023 7.66602 16.8657V30.1182C7.66602 35.8973 11.1018 39.3332 16.8652 39.3332H30.1177C35.881 39.3332 39.3168 35.8973 39.3168 30.134V16.8657C39.3327 11.1023 35.8969 7.6665 30.1335 7.6665ZM31.0677 19.8582L22.0902 28.8357C21.8685 29.0573 21.5677 29.184 21.251 29.184C20.9343 29.184 20.6335 29.0573 20.4118 28.8357L15.931 24.3548C15.4718 23.8957 15.4718 23.1357 15.931 22.6765C16.3902 22.2173 17.1502 22.2173 17.6093 22.6765L21.251 26.3182L29.3893 18.1798C29.8485 17.7207 30.6085 17.7207 31.0677 18.1798C31.5268 18.639 31.5268 19.3832 31.0677 19.8582Z" fill="#FF4624"></path>
</g>
<defs>
<clipPath id="clip0_43_28">
<rect width="51" height="48" fill="white" transform="translate(0.5)"></rect>
</clipPath>
</defs>
</svg>